<svg id="Layer_1" data-name="Layer 1" xmlns="http://www.w3.org/2000/svg" viewBox="0 0 3071.82 720"><defs><style>.cls-1{fill:#00e1cd;}.cls-2{fill:#01e1cc;}.cls-3{fill:#02e1cc;}.cls-4{fill:#03e1cb;}.cls-5{fill:#04e2cb;}.cls-6{fill:#05e2ca;}.cls-7{fill:#06e2ca;}.cls-8{fill:#07e2c9;}.cls-9{fill:#08e2c9;}.cls-10{fill:#09e2c8;}.cls-11{fill:#0ae2c8;}.cls-12{fill:#0be3c7;}.cls-13{fill:#0ce3c6;}.cls-14{fill:#0de3c6;}.cls-15{fill:#0ee3c5;}.cls-16{fill:#0fe3c5;}.cls-17{fill:#10e3c4;}.cls-18{fill:#11e4c4;}.cls-19{fill:#12e4c3;}.cls-20{fill:#13e4c3;}.cls-21{fill:#14e4c2;}.cls-22{fill:#15e4c2;}.cls-23{fill:#16e4c1;}.cls-24{fill:#17e4c0;}.cls-25{fill:#18e5c0;}.cls-26{fill:#19e5bf;}.cls-27{fill:#1ae5bf;}.cls-28{fill:#1be5be;}.cls-29{fill:#1ce5be;}.cls-30{fill:#1de5bd;}.cls-31{fill:#1ee5bd;}.cls-32{fill:#1fe6bc;}.cls-33{fill:#20e6bc;}.cls-34{fill:#21e6bb;}.cls-35{fill:#22e6ba;}.cls-36{fill:#23e6ba;}.cls-37{fill:#24e6b9;}.cls-38{fill:#25e6b9;}.cls-39{fill:#26e7b8;}.cls-40{fill:#27e7b8;}.cls-41{fill:#28e7b7;}.cls-42{fill:#29e7b7;}.cls-43{fill:#2ae7b6;}.cls-44{fill:#2be7b6;}.cls-45{fill:#2ce8b5;}.cls-46{fill:#2de8b4;}.cls-47{fill:#2ee8b4;}.cls-48{fill:#2fe8b3;}.cls-49{fill:#30e8b3;}.cls-50{fill:#31e8b2;}.cls-51{fill:#32e8b2;}.cls-52{fill:#32e9b1;}.cls-53{fill:#33e9b1;}.cls-54{fill:#34e9b0;}.cls-55{fill:#35e9b0;}.cls-56{fill:#36e9af;}.cls-57{fill:#37e9af;}.cls-58{fill:#38e9ae;}.cls-59{fill:#39eaad;}.cls-60{fill:#3aeaad;}.cls-61{fill:#3beaac;}.cls-62{fill:#3ceaac;}.cls-63{fill:#3deaab;}.cls-64{fill:#3eeaab;}.cls-65{fill:#3febaa;}.cls-66{fill:#40ebaa;}.cls-67{fill:#41eba9;}.cls-68{fill:#42eba9;}.cls-69{fill:#43eba8;}.cls-70{fill:#44eba7;}.cls-71{fill:#45eba7;}.cls-72{fill:#46eca6;}.cls-73{fill:#47eca6;}.cls-74{fill:#48eca5;}.cls-75{fill:#49eca5;}.cls-76{fill:#4aeca4;}.cls-77{fill:#4beca4;}.cls-78{fill:#4ceca3;}.cls-79{fill:#4deda3;}.cls-80{fill:#4eeda2;}.cls-81{fill:#4feda1;}.cls-82{fill:#50eda1;}.cls-83{fill:#51eda0;}.cls-84{fill:#52eda0;}.cls-85{fill:#53ed9f;}.cls-86{fill:#54ee9f;}.cls-87{fill:#55ee9e;}.cls-88{fill:#56ee9e;}.cls-89{fill:#57ee9d;}.cls-90{fill:#58ee9d;}.cls-91{fill:#59ee9c;}.cls-92{fill:#5aef9b;}.cls-93{fill:#5bef9b;}.cls-94{fill:#5cef9a;}.cls-95{fill:#5def9a;}.cls-96{fill:#5eef99;}.cls-97{fill:#5fef99;}.cls-98{fill:#60ef98;}.cls-99{fill:#61f098;}.cls-100{fill:#62f097;}.cls-101{fill:#63f097;}.cls-102{fill:#64f096;}.cls-103{fill:#65f095;}.cls-104{fill:#66f095;}.cls-105{fill:#67f094;}.cls-106{fill:#68f094;}.cls-107{fill:#69f193;}.cls-108{fill:#6af193;}.cls-109{fill:#6bf192;}.cls-110{fill:#6cf192;}.cls-111{fill:#6df191;}.cls-112{fill:#6ef190;}.cls-113{fill:#6ff190;}.cls-114{fill:#70f18f;}.cls-115{fill:#71f28f;}.cls-116{fill:#72f28e;}.cls-117{fill:#73f28e;}.cls-118{fill:#74f28d;}.cls-119{fill:#75f28d;}.cls-120{fill:#76f28c;}.cls-121{fill:#77f28b;}.cls-122{fill:#78f28b;}.cls-123{fill:#79f38a;}.cls-124{fill:#7af38a;}.cls-125{fill:#7bf389;}.cls-126{fill:#7cf389;}.cls-127{fill:#7df388;}.cls-128{fill:#7ef388;}.cls-129{fill:#7ff387;}.cls-130{fill:#80f386;}.cls-131{fill:#81f386;}.cls-132{fill:#82f485;}.cls-133{fill:#83f485;}.cls-134{fill:#84f484;}.cls-135{fill:#85f484;}.cls-136{fill:#86f483;}.cls-137{fill:#87f483;}.cls-138{fill:#88f482;}.cls-139{fill:#89f481;}.cls-140{fill:#8af581;}.cls-141{fill:#8bf580;}.cls-142{fill:#8cf580;}.cls-143{fill:#8df57f;}.cls-144{fill:#8ef57f;}.cls-145{fill:#8ff57e;}.cls-146{fill:#90f57e;}.cls-147{fill:#91f57d;}.cls-148{fill:#92f57c;}.cls-149{fill:#93f67c;}.cls-150{fill:#94f67b;}.cls-151{fill:#95f67b;}.cls-152{fill:#96f67a;}.cls-153{fill:#97f67a;}.cls-154{fill:#98f679;}.cls-155{fill:#99f679;}.cls-156{fill:#9af678;}.cls-157{fill:#9bf777;}.cls-158{fill:#9cf777;}.cls-159{fill:#9df776;}.cls-160{fill:#9ef776;}.cls-161{fill:#9ff775;}.cls-162{fill:#a0f775;}.cls-163{fill:#a1f774;}.cls-164{fill:#a2f774;}.cls-165{fill:#a3f873;}.cls-166{fill:#a3f872;}.cls-167{fill:#a4f872;}.cls-168{fill:#a5f871;}.cls-169{fill:#a6f871;}.cls-170{fill:#a7f870;}.cls-171{fill:#a8f870;}.cls-172{fill:#a9f86f;}.cls-173{fill:#aaf86f;}.cls-174{fill:#abf96e;}.cls-175{fill:#acf96d;}.cls-176{fill:#adf96d;}.cls-177{fill:#aef96c;}.cls-178{fill:#aff96c;}.cls-179{fill:#b0f96b;}.cls-180{fill:#b1f96b;}.cls-181{fill:#b2f96a;}.cls-182{fill:#b3fa6a;}.cls-183{fill:#b4fa69;}.cls-184{fill:#b5fa68;}.cls-185{fill:#b6fa68;}.cls-186{fill:#b7fa67;}.cls-187{fill:#b8fa67;}.cls-188{fill:#b9fa66;}.cls-189{fill:#bafa66;}.cls-190{fill:#bbfa65;}.cls-191{fill:#bcfb65;}.cls-192{fill:#bdfb64;}.cls-193{fill:#befb63;}.cls-194{fill:#bffb63;}.cls-195{fill:#c0fb62;}.cls-196{fill:#c1fb62;}.cls-197{fill:#c2fb61;}.cls-198{fill:#c3fb61;}.cls-199{fill:#c4fc60;}.cls-200{fill:#c5fc60;}.cls-201{fill:#c6fc5f;}.cls-202{fill:#c7fc5e;}.cls-203{fill:#c8fc5e;}.cls-204{fill:#c9fc5d;}.cls-205{fill:#cafc5d;}.cls-206{fill:#cbfc5c;}.cls-207{fill:#ccfc5c;}.cls-208{fill:#cdfd5b;}.cls-209{fill:#cefd5b;}.cls-210{fill:#cffd5a;}.cls-211{fill:#d0fd59;}.cls-212{fill:#d1fd59;}.cls-213{fill:#d2fd58;}.cls-214{fill:#d3fd58;}.cls-215{fill:#d4fd57;}.cls-216{fill:#d5fe57;}.cls-217{fill:#d6fe56;}.cls-218{fill:#d7fe56;}.cls-219{fill:#d8fe55;}.cls-220{fill:#d9fe54;}.cls-221{fill:#dafe54;}.cls-222{fill:#dbfe53;}.cls-223{fill:#dcfe53;}.cls-224{fill:#ddff52;}.cls-225{fill:#deff52;}.cls-226{fill:#dfff51;}.cls-227{fill:#e0ff51;}.cls-228{fill:#e1ff50;}.cls-229{fill:#0ae2c7;}.cls-230{fill:#13e4c2;}.cls-231{fill:#15e4c1;}.cls-232{fill:#1ae5be;}.cls-233{fill:#1ce5bd;}.cls-234{fill:#1ee5bc;}.cls-235{fill:#20e6bb;}.cls-236{fill:#23e6b9;}.cls-237{fill:#25e6b8;}.cls-238{fill:#27e7b7;}.cls-239{fill:#29e7b6;}.cls-240{fill:#2be7b5;}.cls-241{fill:#2ce7b4;}.cls-242{fill:#2ee8b3;}.cls-243{fill:#30e8b2;}.cls-244{fill:#32e8b1;}.cls-245{fill:#35e9af;}.cls-246{fill:#37e9ae;}.cls-247{fill:#39e9ad;}.cls-248{fill:#3ceaab;}.cls-249{fill:#3eeaaa;}.cls-250{fill:#3feaaa;}.cls-251{fill:#40eaa9;}.cls-252{fill:#42eba8;}.cls-253{fill:#45eba6;}.cls-254{fill:#46eba6;}.cls-255{fill:#47eba5;}.cls-256{fill:#49eca4;}.cls-257{fill:#4beca3;}.cls-258{fill:#4deca2;}.cls-259{fill:#4eeca1;}.cls-260{fill:#50eda0;}.cls-261{fill:#52ed9f;}.cls-262{fill:#54ed9e;}.cls-263{fill:#56ee9d;}.cls-264{fill:#57ee9c;}.cls-265{fill:#58ee9c;}.cls-266{fill:#59ee9b;}.cls-267{fill:#5aee9b;}.cls-268{fill:#5bee9a;}.cls-269{fill:#5def99;}.cls-270{fill:#5eef98;}.cls-271{fill:#5fef98;}.cls-272{fill:#60ef97;}.cls-273{fill:#61ef97;}.cls-274{fill:#62ef96;}.cls-275{fill:#63f096;}.cls-276{fill:#64f095;}.cls-277{fill:#66f094;}.cls-278{fill:#67f093;}.cls-279{fill:#68f093;}.cls-280{fill:#69f092;}.cls-281{fill:#6af192;}.cls-282{fill:#6bf191;}.cls-283{fill:#6cf191;}.cls-284{fill:#6df190;}.cls-285{fill:#6ff18f;}.cls-286{fill:#70f18e;}.cls-287{fill:#71f28e;}.cls-288{fill:#72f28d;}.cls-289{fill:#73f28d;}.cls-290{fill:#74f28c;}.cls-291{fill:#75f28c;}.cls-292{fill:#76f28b;}.cls-293{fill:#77f38b;}.cls-294{fill:#78f38a;}.cls-295{fill:#79f389;}.cls-296{fill:#7af389;}.cls-297{fill:#7bf388;}.cls-298{fill:#7cf388;}.cls-299{fill:#7df387;}.cls-300{fill:#7ef487;}.cls-301{fill:#7ff486;}.cls-302{fill:#80f485;}.cls-303{fill:#81f485;}.cls-304{fill:#82f484;}.cls-305{fill:#83f484;}.cls-306{fill:#84f483;}.cls-307{fill:#85f583;}.cls-308{fill:#86f582;}.cls-309{fill:#87f582;}.cls-310{fill:#88f581;}.cls-311{fill:#89f580;}.cls-312{fill:#8af580;}.cls-313{fill:#8bf57f;}.cls-314{fill:#8cf67f;}.cls-315{fill:#8df67e;}.cls-316{fill:#8ef67e;}.cls-317{fill:#8ff67d;}.cls-318{fill:#90f67d;}.cls-319{fill:#91f67c;}.cls-320{fill:#92f67b;}.cls-321{fill:#93f77b;}.cls-322{fill:#94f77a;}.cls-323{fill:#95f77a;}.cls-324{fill:#96f779;}.cls-325{fill:#97f779;}.cls-326{fill:#98f778;}.cls-327{fill:#99f878;}.cls-328{fill:#9af877;}.cls-329{fill:#9bf876;}.cls-330{fill:#9cf876;}.cls-331{fill:#9df875;}.cls-332{fill:#9ef875;}.cls-333{fill:#9ff874;}.cls-334{fill:#a0f974;}.cls-335{fill:#a1f973;}.cls-336{fill:#a2f972;}.cls-337{fill:#a3f972;}.cls-338{fill:#a4f971;}.cls-339{fill:#a5f971;}.cls-340{fill:#a6f970;}.cls-341{fill:#a7fa70;}.cls-342{fill:#a8fa6f;}.cls-343{fill:#a9fa6f;}.cls-344{fill:#aafa6e;}.cls-345{fill:#abfa6d;}.cls-346{fill:#acfa6d;}.cls-347{fill:#adfa6c;}.cls-348{fill:#aefa6c;}.cls-349{fill:#affa6b;}.cls-350{fill:#b0fb6b;}.cls-351{fill:#b1fb6a;}.cls-352{fill:#b2fb6a;}.cls-353{fill:#b3fb69;}.cls-354{fill:#b4fb69;}.cls-355{fill:#b5fb68;}.cls-356{fill:#b6fb68;}.cls-357{fill:#b7fb67;}.cls-358{fill:#b8fb67;}.cls-359{fill:#b9fb66;}.cls-360{fill:#bafb65;}.cls-361{fill:#bbfc65;}.cls-362{fill:#bcfc64;}.cls-363{fill:#bdfc64;}.cls-364{fill:#befc63;}.cls-365{fill:#bffc63;}.cls-366{fill:#c0fc62;}.cls-367{fill:#c1fc62;}.cls-368{fill:#c2fc61;}.cls-369{fill:#c3fc61;}.cls-370{fill:#c6fd5f;}.cls-371{fill:#c6fd5e;}.cls-372{fill:#c7fd5e;}.cls-373{fill:#c8fd5d;}.cls-374{fill:#c9fd5d;}.cls-375{fill:#cafd5c;}.cls-376{fill:#cbfd5c;}.cls-377{fill:#ccfd5b;}.cls-378{fill:#cefd5a;}.cls-379{fill:#d1fe59;}.cls-380{fill:#d2fe58;}.cls-381{fill:#d3fe58;}.cls-382{fill:#d4fe57;}.cls-383{fill:#d5fe56;}.cls-384{fill:#d7fe55;}.cls-385{fill:#dcff53;}.cls-386{fill:#0be2c7;}.cls-387{fill:#11e3c4;}.cls-388{fill:#12e3c3;}.cls-389{fill:#18e4c0;}.cls-390{fill:#19e4bf;}.cls-391{fill:#1ae4bf;}.cls-392{fill:#1fe5bc;}.cls-393{fill:#20e5bb;}.cls-394{fill:#21e5bb;}.cls-395{fill:#26e6b8;}.cls-396{fill:#27e6b7;}.cls-397{fill:#28e6b7;}.cls-398{fill:#29e6b6;}.cls-399{fill:#2ce7b5;}.cls-400{fill:#2de7b4;}.cls-401{fill:#2ee7b3;}.cls-402{fill:#2fe7b3;}.cls-403{fill:#30e7b2;}.cls-404{fill:#33e8b1;}.cls-405{fill:#34e8b0;}.cls-406{fill:#35e8b0;}.cls-407{fill:#36e8af;}.cls-408{fill:#37e8ae;}.cls-409{fill:#38e8ae;}.cls-410{fill:#3ae9ad;}.cls-411{fill:#3be9ac;}.cls-412{fill:#3ce9ac;}.cls-413{fill:#3de9ab;}.cls-414{fill:#3ee9ab;}.cls-415{fill:#3fe9aa;}.cls-416{fill:#41eaa9;}.cls-417{fill:#42eaa8;}.cls-418{fill:#43eaa8;}.cls-419{fill:#44eaa7;}.cls-420{fill:#45eaa7;}.cls-421{fill:#46eaa6;}.cls-422{fill:#47eaa6;}.cls-423{fill:#48eba5;}.cls-424{fill:#49eba4;}.cls-425{fill:#4aeba4;}.cls-426{fill:#4beba3;}.cls-427{fill:#4ceba3;}.cls-428{fill:#4deba2;}.cls-429{fill:#4eeba2;}.cls-430{fill:#4feca1;}.cls-431{fill:#50eca1;}.cls-432{fill:#51eca0;}.cls-433{fill:#52ec9f;}.cls-434{fill:#53ec9f;}.cls-435{fill:#54ec9e;}.cls-436{fill:#55ec9e;}.cls-437{fill:#56ec9d;}.cls-438{fill:#57ed9d;}.cls-439{fill:#58ed9c;}.cls-440{fill:#59ed9c;}.cls-441{fill:#5aed9b;}.cls-442{fill:#5bed9a;}.cls-443{fill:#5ced9a;}.cls-444{fill:#5ded99;}.cls-445{fill:#5eee99;}.cls-446{fill:#5fee98;}.cls-447{fill:#60ee98;}.cls-448{fill:#61ee97;}.cls-449{fill:#62ee97;}.cls-450{fill:#63ee96;}.cls-451{fill:#64ee95;}.cls-452{fill:#65ee95;}.cls-453{fill:#66ef94;}.cls-454{fill:#67ef94;}.cls-455{fill:#68ef93;}.cls-456{fill:#69ef93;}.cls-457{fill:#6aef92;}.cls-458{fill:#6bef92;}.cls-459{fill:#6cef91;}.cls-460{fill:#6df090;}.cls-461{fill:#6ef090;}.cls-462{fill:#6ff08f;}.cls-463{fill:#70f08f;}.cls-464{fill:#71f08e;}.cls-465{fill:#72f08e;}.cls-466{fill:#73f08d;}.cls-467{fill:#74f08d;}.cls-468{fill:#75f18c;}.cls-469{fill:#76f18b;}.cls-470{fill:#77f18b;}.cls-471{fill:#78f18a;}.cls-472{fill:#79f18a;}.cls-473{fill:#7af189;}.cls-474{fill:#7bf189;}.cls-475{fill:#7cf288;}.cls-476{fill:#7df288;}.cls-477{fill:#7ef287;}.cls-478{fill:#7ff286;}.cls-479{fill:#80f286;}.cls-480{fill:#81f285;}.cls-481{fill:#82f285;}.cls-482{fill:#83f284;}.cls-483{fill:#84f384;}.cls-484{fill:#85f383;}.cls-485{fill:#86f383;}.cls-486{fill:#87f382;}.cls-487{fill:#88f381;}.cls-488{fill:#89f381;}.cls-489{fill:#8af380;}.cls-490{fill:#8bf480;}.cls-491{fill:#8cf47f;}.cls-492{fill:#8df47f;}.cls-493{fill:#8ef47e;}.cls-494{fill:#8ff47e;}.cls-495{fill:#90f47d;}.cls-496{fill:#91f47c;}.cls-497{fill:#92f47c;}.cls-498{fill:#93f57b;}.cls-499{fill:#94f57b;}.cls-500{fill:#95f57a;}.cls-501{fill:#96f57a;}.cls-502{fill:#97f579;}.cls-503{fill:#98f579;}.cls-504{fill:#99f578;}.cls-505{fill:#9af677;}.cls-506{fill:#9bf677;}.cls-507{fill:#9cf676;}.cls-508{fill:#9df676;}.cls-509{fill:#9ef675;}.cls-510{fill:#9ff675;}.cls-511{fill:#a0f674;}.cls-512{fill:#a1f674;}.cls-513{fill:#a2f773;}.cls-514{fill:#a3f772;}.cls-515{fill:#a4f772;}.cls-516{fill:#a5f771;}.cls-517{fill:#a6f771;}.cls-518{fill:#a7f770;}.cls-519{fill:#a8f770;}.cls-520{fill:#abf86e;}.cls-521{fill:#acf86d;}.cls-522{fill:#adf86d;}.cls-523{fill:#aef86c;}.cls-524{fill:#aff86c;}.cls-525{fill:#b0f86b;}.cls-526{fill:#b3f96a;}.cls-527{fill:#b4f969;}.cls-528{fill:#b5f968;}.cls-529{fill:#b6f968;}.cls-530{fill:#b7f967;}.cls-531{fill:#bcfa65;}.cls-532{fill:#bdfa64;}.cls-533{fill:#befa63;}.cls-534{fill:#bffa63;}.cls-535{fill:#c4fb60;}.cls-536{fill:#c5fb60;}.cls-537{fill:#c6fb5f;}.cls-538{fill:#cdfc5b;}.cls-539{fill:#cefc5b;}.cls-540{fill:#d5fd57;}.cls-541{fill:#ddfe52;}</style></defs><title>Ciclic_Logomarca_Positivo_RGB</title><circle class="cls-1" cx="1633.64" cy="160.22" r="72" transform="translate(363.11 1198.22) rotate(-45)"/><circle class="cls-2" cx="1633.61" cy="160.19" r="72" transform="translate(363.12 1198.19) rotate(-45)"/><circle class="cls-3" cx="1633.55" cy="160.12" r="72" transform="translate(363.15 1198.12) rotate(-45)"/><circle class="cls-4" cx="1633.43" cy="160" r="72" transform="translate(363.2 1198.01) rotate(-45)"/><circle class="cls-5" cx="1633.27" cy="159.83" r="72" transform="translate(363.28 1197.85) rotate(-45)"/><circle class="cls-6" cx="1633.07" cy="159.62" r="72" transform="translate(363.37 1197.64) rotate(-45)"/><circle class="cls-7" cx="1632.82" cy="159.36" r="72" transform="translate(363.48 1197.39) rotate(-45)"/><circle class="cls-8" cx="1632.53" cy="159.06" r="72" transform="translate(363.61 1197.09) rotate(-45)"/><circle class="cls-9" cx="1632.19" cy="158.72" r="72" transform="translate(363.75 1196.75) rotate(-45)"/><circle class="cls-10" cx="1631.81" cy="158.33" r="72" transform="translate(363.91 1196.37) rotate(-45)"/><circle class="cls-11" cx="1631.38" cy="157.9" r="72" transform="translate(364.09 1195.94) rotate(-45)"/><circle class="cls-12" cx="1630.91" cy="157.44" r="72" transform="translate(364.28 1195.48) rotate(-45)"/><circle class="cls-13" cx="1630.4" cy="156.93" r="72" transform="translate(364.49 1194.96) rotate(-45)"/><circle class="cls-14" cx="1629.84" cy="156.39" r="72" transform="translate(364.71 1194.41) rotate(-45)"/><circle class="cls-15" cx="1629.24" cy="155.81" r="72" transform="translate(364.94 1193.82) rotate(-45)"/><circle class="cls-16" cx="1628.6" cy="155.19" r="72" transform="translate(365.19 1193.18) rotate(-45)"/><circle class="cls-17" cx="1627.91" cy="154.54" r="72" transform="translate(365.45 1192.5) rotate(-45)"/><circle class="cls-18" cx="1627.18" cy="153.85" r="72" transform="translate(365.72 1191.79) rotate(-45)"/><circle class="cls-19" cx="1626.4" cy="153.14" r="72" transform="translate(366 1191.03) rotate(-45)"/><circle class="cls-20" cx="1625.59" cy="152.39" r="72" transform="translate(366.29 1190.23) rotate(-45)"/><circle class="cls-21" cx="1624.73" cy="151.61" r="72" transform="translate(366.59 1189.4) rotate(-45)"/><circle class="cls-22" cx="1623.83" cy="150.8" r="72" transform="translate(366.9 1188.52) rotate(-45)"/><circle class="cls-23" cx="1622.89" cy="149.96" r="72" transform="translate(367.22 1187.61) rotate(-45)"/><circle class="cls-24" cx="1621.9" cy="149.09" r="72" transform="translate(367.54 1186.66) rotate(-45)"/><circle class="cls-25" cx="1620.88" cy="148.19" r="72" transform="translate(367.88 1185.67) rotate(-45)"/><circle class="cls-26" cx="1619.81" cy="147.27" r="72" transform="translate(368.21 1184.65) rotate(-45)"/><circle class="cls-27" cx="1618.7" cy="146.33" r="72" transform="translate(368.56 1183.59) rotate(-45)"/><circle class="cls-28" cx="1617.55" cy="145.36" r="72" transform="translate(368.91 1182.49) rotate(-45)"/><circle class="cls-29" cx="1616.36" cy="144.37" r="72" transform="translate(369.26 1181.36) rotate(-45)"/><circle class="cls-30" cx="1615.13" cy="143.35" r="72" transform="translate(369.62 1180.19) rotate(-45)"/><circle class="cls-31" cx="1613.85" cy="142.31" r="72" transform="translate(369.98 1178.98) rotate(-45)"/><circle class="cls-32" cx="1612.54" cy="141.26" r="72" transform="translate(370.34 1177.75) rotate(-45)"/><circle class="cls-33" cx="1611.19" cy="140.18" r="72" transform="translate(370.7 1176.47) rotate(-45)"/><circle class="cls-34" cx="1609.79" cy="139.09" r="72" transform="translate(371.07 1175.17) rotate(-45)"/><circle class="cls-35" cx="1608.36" cy="137.98" r="72" transform="translate(371.43 1173.83) rotate(-45)"/><circle class="cls-36" cx="1606.88" cy="136.85" r="72" transform="translate(371.8 1172.46) rotate(-45)"/><circle class="cls-37" cx="1605.37" cy="135.71" r="72" transform="translate(372.16 1171.05) rotate(-45)"/><circle class="cls-38" cx="1603.82" cy="134.55" r="72" transform="translate(372.52 1169.61) rotate(-45)"/><circle class="cls-39" cx="1602.22" cy="133.38" r="72" transform="translate(372.89 1168.14) rotate(-45)"/><circle class="cls-40" cx="1600.59" cy="132.2" r="72" transform="translate(373.24 1166.64) rotate(-45)"/><circle class="cls-41" cx="1598.92" cy="131.01" r="72" transform="translate(373.6 1165.11) rotate(-45)"/><circle class="cls-42" cx="1597.21" cy="129.8" r="72" transform="translate(373.95 1163.55) rotate(-45)"/><circle class="cls-43" cx="1595.46" cy="128.59" r="72" transform="translate(374.29 1161.96) rotate(-45)"/><circle class="cls-44" cx="1593.68" cy="127.37" r="72" transform="translate(374.63 1160.34) rotate(-45)"/><circle class="cls-45" cx="1591.85" cy="126.14" r="72" transform="translate(374.97 1158.69) rotate(-45)"/><circle class="cls-46" cx="1589.99" cy="124.91" r="72" transform="translate(375.29 1157.01) rotate(-45)"/><circle class="cls-47" cx="1588.09" cy="123.67" r="72" transform="translate(375.62 1155.3) rotate(-45)"/><circle class="cls-48" cx="1586.15" cy="122.42" r="72" transform="translate(375.93 1153.57) rotate(-45)"/><circle class="cls-49" cx="1584.17" cy="121.17" r="72" transform="translate(376.23 1151.8) rotate(-45)"/><circle class="cls-50" cx="1582.16" cy="119.92" r="72" transform="translate(376.53 1150.01) rotate(-45)"/><circle class="cls-51" cx="1580.1" cy="118.67" r="72" transform="translate(376.81 1148.19) rotate(-45)"/><circle class="cls-52" cx="1578.02" cy="117.42" r="72" transform="translate(377.08 1146.35) rotate(-45)"/><circle class="cls-53" cx="1575.89" cy="116.17" r="72" transform="translate(377.35 1144.48) rotate(-45)"/><circle class="cls-54" cx="1573.73" cy="114.91" r="72" transform="translate(377.6 1142.58) rotate(-45)"/><circle class="cls-55" cx="1571.53" cy="113.67" r="72" transform="translate(377.84 1140.66) rotate(-45)"/><circle class="cls-56" cx="1569.29" cy="112.42" r="72" transform="translate(378.06 1138.72) rotate(-45)"/><circle class="cls-57" cx="1567.02" cy="111.18" r="72" transform="translate(378.27 1136.75) rotate(-45)"/><circle class="cls-58" cx="1564.71" cy="109.95" r="72" transform="translate(378.47 1134.76) rotate(-45)"/><circle class="cls-59" cx="1562.37" cy="108.72" r="72" transform="translate(378.65 1132.74) rotate(-45)"/><circle class="cls-60" cx="1559.99" cy="107.5" r="72" transform="translate(378.82 1130.7) rotate(-45)"/><circle class="cls-61" cx="1557.57" cy="106.28" r="72" transform="translate(378.97 1128.63) rotate(-45)"/><circle class="cls-62" cx="1555.12" cy="105.08" r="72" transform="translate(379.1 1126.55) rotate(-45)"/><circle class="cls-63" cx="1552.64" cy="103.89" r="72" transform="translate(379.22 1124.44) rotate(-45)"/><circle class="cls-64" cx="1550.11" cy="102.7" r="72" transform="translate(379.32 1122.31) rotate(-45)"/><circle class="cls-65" cx="1547.56" cy="101.54" r="72" transform="translate(379.39 1120.16) rotate(-45)"/><circle class="cls-66" cx="1544.97" cy="100.38" r="72" transform="translate(379.45 1117.99) rotate(-45)"/><circle class="cls-67" cx="1542.34" cy="99.24" r="72" transform="translate(379.49 1115.8) rotate(-45)"/><circle class="cls-68" cx="1539.68" cy="98.11" r="72" transform="translate(379.51 1113.59) rotate(-45)"/><circle class="cls-69" cx="1536.99" cy="97" r="72" transform="translate(379.51 1111.36) rotate(-45)"/><circle class="cls-70" cx="1534.26" cy="95.91" r="72" transform="translate(379.48 1109.11) rotate(-45)"/><circle class="cls-71" cx="1531.5" cy="94.83" r="72" transform="translate(379.43 1106.84) rotate(-45)"/><circle class="cls-72" cx="1528.7" cy="93.77" r="72" transform="translate(379.36 1104.56) rotate(-45)"/><circle class="cls-73" cx="1525.87" cy="92.74" r="72" transform="translate(379.26 1102.25) rotate(-45)"/><circle class="cls-74" cx="1523.01" cy="91.72" r="72" transform="translate(379.14 1099.93) rotate(-45)"/><circle class="cls-75" cx="1520.11" cy="90.73" r="72" transform="translate(379 1097.59) rotate(-45)"/><circle class="cls-76" cx="1517.19" cy="89.76" r="72" transform="translate(378.82 1095.24) rotate(-45)"/><circle class="cls-77" cx="1514.22" cy="88.81" r="72" transform="translate(378.63 1092.87) rotate(-45)"/><circle class="cls-78" cx="1511.23" cy="87.89" r="72" transform="translate(378.4 1090.48) rotate(-45)"/><circle class="cls-79" cx="1508.2" cy="87" r="72" transform="translate(378.15 1088.08) rotate(-45)"/><circle class="cls-80" cx="1505.14" cy="86.13" r="72" transform="translate(377.86 1085.66) rotate(-45)"/><circle class="cls-81" cx="1502.05" cy="85.29" r="72" transform="translate(377.55 1083.23) rotate(-45)"/><circle class="cls-82" cx="1498.93" cy="84.48" r="72" transform="translate(377.21 1080.78) rotate(-45)"/><circle class="cls-83" cx="1495.77" cy="83.7" r="72" transform="translate(376.84 1078.32) rotate(-45)"/><circle class="cls-84" cx="1492.58" cy="82.95" r="72" transform="translate(376.43 1075.85) rotate(-45)"/><circle class="cls-85" cx="1489.37" cy="82.23" r="72" transform="translate(376 1073.36) rotate(-45)"/><circle class="cls-86" cx="1486.12" cy="81.55" r="72" transform="translate(375.53 1070.86) rotate(-45)"/><circle class="cls-87" cx="1482.83" cy="80.9" r="72" transform="translate(375.03 1068.35) rotate(-45)"/><circle class="cls-88" cx="1479.52" cy="80.28" r="72" transform="translate(374.49 1065.83) rotate(-45)"/><circle class="cls-89" cx="1476.18" cy="79.7" r="72" transform="translate(373.93 1063.29) rotate(-45)"/><circle class="cls-90" cx="1472.8" cy="79.16" r="72" transform="translate(373.32 1060.75) rotate(-45)"/><circle class="cls-91" cx="1469.4" cy="78.65" r="72" transform="translate(372.68 1058.19) rotate(-45)"/><circle class="cls-92" cx="1465.97" cy="78.19" r="72" transform="translate(372.01 1055.63) rotate(-45)"/><circle class="cls-93" cx="1462.5" cy="77.76" r="72" transform="translate(371.29 1053.05) rotate(-45)"/><circle class="cls-94" cx="1459.01" cy="77.37" r="72" transform="translate(370.54 1050.47) rotate(-45)"/><circle class="cls-95" cx="1455.48" cy="77.03" r="72" transform="translate(369.75 1047.88) rotate(-45)"/><circle class="cls-96" cx="1451.93" cy="76.73" r="72" transform="translate(368.93 1045.28) rotate(-45)"/><circle class="cls-97" cx="1448.34" cy="76.47" r="72" transform="translate(368.06 1042.67) rotate(-45)"/><circle class="cls-98" cx="1444.73" cy="76.26" r="72" transform="translate(367.15 1040.05) rotate(-45)"/><circle class="cls-99" cx="1441.09" cy="76.09" r="72" transform="translate(366.2 1037.42) rotate(-45)"/><circle class="cls-100" cx="1437.42" cy="75.97" r="72" transform="translate(365.21 1034.79) rotate(-45)"/><circle class="cls-101" cx="1433.72" cy="75.89" r="72" transform="translate(364.18 1032.15) rotate(-45)"/><circle class="cls-102" cx="1429.99" cy="75.87" r="72" transform="translate(363.11 1029.51) rotate(-45)"/><circle class="cls-103" cx="1426.56" cy="75.89" r="71.83" transform="translate(367.48 1033.05) rotate(-45.32)"/><circle class="cls-104" cx="1423.13" cy="75.96" r="71.67" transform="translate(371.85 1036.58) rotate(-45.65)"/><circle class="cls-105" cx="1419.71" cy="76.07" r="71.51" transform="translate(376.21 1040.09) rotate(-45.97)"/><circle class="cls-106" cx="1416.28" cy="76.22" r="71.35" transform="translate(380.58 1043.58) rotate(-46.3)"/><circle class="cls-107" cx="1412.86" cy="76.42" r="71.19" transform="translate(384.94 1047.06) rotate(-46.63)"/><circle class="cls-108" cx="1409.43" cy="76.66" r="71.04" transform="translate(389.3 1050.52) rotate(-46.96)"/><circle class="cls-109" cx="1406.02" cy="76.94" r="70.88" transform="translate(393.66 1053.97) rotate(-47.29)"/><circle class="cls-110" cx="1402.6" cy="77.27" r="70.73" transform="translate(398.01 1057.39) rotate(-47.62)"/><circle class="cls-111" cx="1399.19" cy="77.64" r="70.59" transform="translate(402.36 1060.81) rotate(-47.95)"/><circle class="cls-112" cx="1395.78" cy="78.05" r="70.44" transform="translate(406.71 1064.2) rotate(-48.29)"/><circle class="cls-113" cx="1392.37" cy="78.5" r="70.3" transform="translate(411.05 1067.58) rotate(-48.62)"/><circle class="cls-114" cx="1388.97" cy="79" r="70.16" transform="translate(415.38 1070.95) rotate(-48.96)"/><circle class="cls-115" cx="1385.58" cy="79.54" r="70.02" transform="translate(419.7 1074.3) rotate(-49.3)"/><circle class="cls-116" cx="1382.19" cy="80.12" r="69.89" transform="matrix(0.65, -0.76, 0.76, 0.65, 424.02, 1077.63)"/><circle class="cls-117" cx="1378.81" cy="80.74" r="69.75" transform="translate(428.33 1080.95) rotate(-49.98)"/><circle class="cls-118" cx="1375.43" cy="81.4" r="69.62" transform="translate(432.63 1084.25) rotate(-50.33)"/><circle class="cls-119" cx="1372.06" cy="82.1" r="69.5" transform="translate(436.92 1087.54) rotate(-50.67)"/><circle class="cls-120" cx="1368.7" cy="82.85" r="69.37" transform="translate(441.21 1090.82) rotate(-51.02)"/><circle class="cls-121" cx="1365.34" cy="83.63" r="69.25" transform="translate(445.48 1094.08) rotate(-51.37)"/><circle class="cls-122" cx="1362" cy="84.46" r="69.13" transform="translate(449.74 1097.32) rotate(-51.71)"/><circle class="cls-123" cx="1358.66" cy="85.33" r="69.01" transform="translate(453.98 1100.56) rotate(-52.06)"/><circle class="cls-124" cx="1355.33" cy="86.23" r="68.89" transform="matrix(0.61, -0.79, 0.79, 0.61, 458.22, 1103.78)"/><circle class="cls-125" cx="1352.01" cy="87.18" r="68.78" transform="translate(462.44 1106.98) rotate(-52.77)"/><circle class="cls-126" cx="1348.7" cy="88.17" r="68.67" transform="translate(466.65 1110.18) rotate(-53.12)"/><circle class="cls-127" cx="1345.4" cy="89.19" r="68.56" transform="translate(470.85 1113.36) rotate(-53.47)"/><circle class="cls-128" cx="1342.11" cy="90.26" r="68.46" transform="translate(475.03 1116.53) rotate(-53.83)"/><circle class="cls-129" cx="1338.84" cy="91.37" r="68.36" transform="translate(479.19 1119.69) rotate(-54.18)"/><circle class="cls-130" cx="1335.57" cy="92.51" r="68.26" transform="translate(483.34 1122.84) rotate(-54.54)"/><circle class="cls-131" cx="1332.32" cy="93.69" r="68.16" transform="translate(487.48 1125.98) rotate(-54.9)"/><circle class="cls-132" cx="1329.08" cy="94.92" r="68.07" transform="translate(491.59 1129.1) rotate(-55.26)"/><circle class="cls-133" cx="1325.85" cy="96.18" r="67.98" transform="translate(495.69 1132.22) rotate(-55.62)"/><circle class="cls-134" cx="1322.64" cy="97.48" r="67.89" transform="translate(499.77 1135.33) rotate(-55.98)"/><circle class="cls-135" cx="1319.43" cy="98.81" r="67.8" transform="translate(503.83 1138.43) rotate(-56.34)"/><circle class="cls-136" cx="1316.25" cy="100.19" r="67.72" transform="translate(507.87 1141.52) rotate(-56.7)"/><circle class="cls-137" cx="1313.08" cy="101.6" r="67.64" transform="translate(511.89 1144.6) rotate(-57.07)"/><circle class="cls-138" cx="1309.92" cy="103.05" r="67.56" transform="translate(515.89 1147.68) rotate(-57.43)"/><circle class="cls-139" cx="1306.78" cy="104.54" r="67.48" transform="translate(519.87 1150.75) rotate(-57.8)"/><circle class="cls-140" cx="1303.66" cy="106.07" r="67.41" transform="translate(523.83 1153.81) rotate(-58.17)"/><circle class="cls-141" cx="1300.55" cy="107.63" r="67.34" transform="translate(527.77 1156.87) rotate(-58.53)"/><circle class="cls-142" cx="1297.46" cy="109.23" r="67.28" transform="translate(531.68 1159.92) rotate(-58.9)"/><circle class="cls-143" cx="1294.38" cy="110.86" r="67.21" transform="translate(535.58 1162.97) rotate(-59.27)"/><circle class="cls-144" cx="1291.32" cy="112.54" r="67.15" transform="translate(539.44 1166.02) rotate(-59.64)"/><circle class="cls-145" cx="1288.29" cy="114.24" r="67.09" transform="translate(543.29 1169.06) rotate(-60.01)"/><circle class="cls-146" cx="1285.27" cy="115.99" r="67.04" transform="translate(547.11 1172.1) rotate(-60.38)"/><circle class="cls-147" cx="1282.26" cy="117.77" r="66.98" transform="translate(550.9 1175.14) rotate(-60.75)"/><circle class="cls-148" cx="1279.28" cy="119.59" r="66.93" transform="translate(554.67 1178.18) rotate(-61.12)"/><circle class="cls-149" cx="1276.32" cy="121.44" r="66.89" transform="translate(558.41 1181.21) rotate(-61.49)"/><circle class="cls-150" cx="1273.38" cy="123.32" r="66.84" transform="translate(562.13 1184.25) rotate(-61.87)"/><circle class="cls-151" cx="1270.46" cy="125.25" r="66.8" transform="translate(565.82 1187.29) rotate(-62.24)"/><circle class="cls-152" cx="1267.56" cy="127.2" r="66.76" transform="translate(569.49 1190.34) rotate(-62.61)"/><circle class="cls-153" cx="1264.68" cy="129.2" r="66.73" transform="translate(573.13 1193.38) rotate(-62.99)"/><circle class="cls-154" cx="1261.83" cy="131.22" r="66.69" transform="translate(576.74 1196.43) rotate(-63.36)"/><circle class="cls-155" cx="1258.99" cy="133.28" r="66.66" transform="translate(580.32 1199.49) rotate(-63.74)"/><circle class="cls-156" cx="1256.18" cy="135.38" r="66.64" transform="translate(583.87 1202.55) rotate(-64.11)"/><circle class="cls-157" cx="1253.4" cy="137.51" r="66.61" transform="translate(587.4 1205.61) rotate(-64.49)"/><circle class="cls-158" cx="1250.63" cy="139.67" r="66.59" transform="translate(590.9 1208.69) rotate(-64.86)"/><circle class="cls-159" cx="1247.89" cy="141.87" r="66.57" transform="translate(594.36 1211.77) rotate(-65.24)"/><circle class="cls-160" cx="1245.18" cy="144.1" r="66.56" transform="translate(597.8 1214.86) rotate(-65.62)"/><circle class="cls-161" cx="1242.49" cy="146.36" r="66.54" transform="translate(601.21 1217.96) rotate(-65.99)"/><circle class="cls-162" cx="1239.83" cy="148.66" r="66.53" transform="translate(604.6 1221.08) rotate(-66.37)"/><circle class="cls-163" cx="1237.19" cy="150.99" r="66.53" transform="translate(607.95 1224.2) rotate(-66.75)"/><circle class="cls-164" cx="1234.58" cy="153.35" r="66.52" transform="translate(611.27 1227.34) rotate(-67.12)"/><circle class="cls-165" cx="1231.99" cy="155.74" r="66.52" transform="translate(614.56 1230.49) rotate(-67.5)"/><circle class="cls-166" cx="1229.43" cy="158.17" r="66.52" transform="translate(617.82 1233.65) rotate(-67.88)"/><circle class="cls-167" cx="1226.9" cy="160.63" r="66.53" transform="translate(621.05 1236.84) rotate(-68.25)"/><circle class="cls-168" cx="1224.4" cy="163.12" r="66.53" transform="translate(624.26 1240.03) rotate(-68.63)"/><circle class="cls-169" cx="1221.93" cy="165.64" r="66.54" transform="translate(627.43 1243.25) rotate(-69.01)"/><circle class="cls-170" cx="1219.48" cy="168.2" r="66.56" transform="translate(630.57 1246.49) rotate(-69.38)"/><circle class="cls-171" cx="1217.07" cy="170.78" r="66.57" transform="translate(633.69 1249.74) rotate(-69.76)"/><circle class="cls-172" cx="1214.68" cy="173.4" r="66.59" transform="translate(636.77 1253.02) rotate(-70.14)"/><circle class="cls-173" cx="1212.33" cy="176.05" r="66.61" transform="matrix(0.33, -0.94, 0.94, 0.33, 639.82, 1256.31)"/><circle class="cls-174" cx="1210" cy="178.73" r="66.64" transform="translate(642.85 1259.63) rotate(-70.89)"/><circle class="cls-175" cx="1207.71" cy="181.43" r="66.66" transform="translate(645.84 1262.98) rotate(-71.26)"/><circle class="cls-176" cx="1205.45" cy="184.17" r="66.69" transform="translate(648.8 1266.35) rotate(-71.64)"/><circle class="cls-177" cx="1203.22" cy="186.94" r="66.73" transform="translate(651.74 1269.74) rotate(-72.01)"/><circle class="cls-178" cx="1201.02" cy="189.74" r="66.76" transform="translate(654.65 1273.17) rotate(-72.39)"/><circle class="cls-179" cx="1198.86" cy="192.57" r="66.8" transform="translate(657.53 1276.62) rotate(-72.76)"/><circle class="cls-180" cx="1196.72" cy="195.43" r="66.84" transform="translate(660.38 1280.1) rotate(-73.13)"/><circle class="cls-181" cx="1194.63" cy="198.32" r="66.89" transform="translate(663.2 1283.61) rotate(-73.51)"/><circle class="cls-182" cx="1192.56" cy="201.24" r="66.93" transform="translate(665.99 1287.15) rotate(-73.88)"/><circle class="cls-183" cx="1190.53" cy="204.19" r="66.98" transform="translate(668.76 1290.73) rotate(-74.25)"/><circle class="cls-184" cx="1188.54" cy="207.16" r="67.04" transform="translate(671.5 1294.33) rotate(-74.62)"/><circle class="cls-185" cx="1186.58" cy="210.17" r="67.09" transform="matrix(0.26, -0.97, 0.97, 0.26, 674.22, 1297.98)"/><circle class="cls-186" cx="1184.66" cy="213.2" r="67.15" transform="translate(676.9 1301.66) rotate(-75.36)"/><circle class="cls-187" cx="1182.77" cy="216.26" r="67.21" transform="translate(679.57 1305.37) rotate(-75.73)"/><circle class="cls-188" cx="1180.92" cy="219.35" r="67.28" transform="translate(682.21 1309.12) rotate(-76.1)"/><circle class="cls-189" cx="1179.11" cy="222.47" r="67.34" transform="translate(684.82 1312.92) rotate(-76.47)"/><circle class="cls-190" cx="1177.33" cy="225.62" r="67.41" transform="translate(687.41 1316.75) rotate(-76.83)"/><circle class="cls-191" cx="1175.6" cy="228.79" r="67.48" transform="translate(689.97 1320.62) rotate(-77.2)"/><circle class="cls-192" cx="1173.9" cy="231.99" r="67.56" transform="translate(692.52 1324.54) rotate(-77.57)"/><circle class="cls-193" cx="1172.24" cy="235.22" r="67.64" transform="translate(695.04 1328.5) rotate(-77.93)"/><circle class="cls-194" cx="1170.62" cy="238.47" r="67.72" transform="translate(697.54 1332.5) rotate(-78.3)"/><circle class="cls-195" cx="1169.04" cy="241.75" r="67.8" transform="translate(700.02 1336.55) rotate(-78.66)"/><circle class="cls-196" cx="1167.5" cy="245.06" r="67.89" transform="translate(702.48 1340.65) rotate(-79.02)"/><circle class="cls-197" cx="1166" cy="248.4" r="67.98" transform="matrix(0.18, -0.98, 0.98, 0.18, 704.91, 1344.79)"/><circle class="cls-198" cx="1164.54" cy="251.76" r="68.07" transform="translate(707.33 1348.98) rotate(-79.74)"/><circle class="cls-199" cx="1163.12" cy="255.15" r="68.16" transform="translate(709.74 1353.22) rotate(-80.1)"/><circle class="cls-200" cx="1161.74" cy="258.56" r="68.26" transform="translate(712.12 1357.51) rotate(-80.46)"/><circle class="cls-201" cx="1160.41" cy="262" r="68.36" transform="translate(714.49 1361.85) rotate(-80.82)"/><circle class="cls-202" cx="1159.12" cy="265.46" r="68.46" transform="translate(716.85 1366.25) rotate(-81.17)"/><circle class="cls-203" cx="1157.87" cy="268.95" r="68.56" transform="translate(719.19 1370.7) rotate(-81.53)"/><circle class="cls-204" cx="1156.67" cy="272.47" r="68.67" transform="translate(721.51 1375.2) rotate(-81.88)"/><circle class="cls-205" cx="1155.51" cy="276.01" r="68.78" transform="translate(723.83 1379.76) rotate(-82.23)"/><circle class="cls-206" cx="1154.39" cy="279.57" r="68.89" transform="translate(726.13 1384.38) rotate(-82.59)"/><circle class="cls-207" cx="1153.32" cy="283.16" r="69.01" transform="translate(728.42 1389.05) rotate(-82.94)"/><circle class="cls-208" cx="1152.3" cy="286.77" r="69.13" transform="translate(730.71 1393.78) rotate(-83.29)"/><circle class="cls-209" cx="1151.32" cy="290.41" r="69.25" transform="translate(732.98 1398.57) rotate(-83.63)"/><circle class="cls-210" cx="1150.39" cy="294.07" r="69.37" transform="translate(735.24 1403.42) rotate(-83.98)"/><circle class="cls-211" cx="1149.5" cy="297.76" r="69.5" transform="translate(737.5 1408.33) rotate(-84.33)"/><circle class="cls-212" cx="1148.66" cy="301.47" r="69.62" transform="translate(739.76 1413.31) rotate(-84.67)"/><circle class="cls-213" cx="1147.87" cy="305.2" r="69.75" transform="translate(742.01 1418.34) rotate(-85.02)"/><circle class="cls-214" cx="1147.13" cy="308.95" r="69.89" transform="translate(744.26 1423.44) rotate(-85.36)"/><circle class="cls-215" cx="1146.43" cy="312.73" r="70.02" transform="translate(746.5 1428.61) rotate(-85.7)"/><circle class="cls-216" cx="1145.78" cy="316.53" r="70.16" transform="matrix(0.07, -1, 1, 0.07, 748.74, 1433.84)"/><circle class="cls-217" cx="1145.19" cy="320.36" r="70.3" transform="translate(750.99 1439.13) rotate(-86.38)"/><circle class="cls-218" cx="1144.64" cy="324.2" r="70.44" transform="translate(753.23 1444.5) rotate(-86.71)"/><circle class="cls-219" cx="1144.14" cy="328.07" r="70.59" transform="translate(755.48 1449.93) rotate(-87.05)"/><circle class="cls-220" cx="1143.7" cy="331.96" r="70.73" transform="translate(757.73 1455.43) rotate(-87.38)"/><circle class="cls-221" cx="1143.3" cy="335.88" r="70.88" transform="translate(759.99 1461) rotate(-87.71)"/><circle class="cls-222" cx="1142.95" cy="339.81" r="71.04" transform="matrix(0.03, -1, 1, 0.03, 762.25, 1466.64)"/><circle class="cls-223" cx="1142.66" cy="343.77" r="71.19" transform="translate(764.53 1472.35) rotate(-88.37)"/><circle class="cls-224" cx="1142.42" cy="347.75" r="71.35" transform="translate(766.81 1478.13) rotate(-88.7)"/><circle class="cls-225" cx="1142.23" cy="351.74" r="71.51" transform="translate(769.1 1483.99) rotate(-89.03)"/><circle class="cls-226" cx="1142.1" cy="355.76" r="71.67" transform="translate(771.4 1489.91) rotate(-89.35)"/><circle class="cls-227" cx="1142.02" cy="359.8" r="71.83" transform="translate(773.72 1495.92) rotate(-89.68)"/><circle class="cls-228" cx="1139.91" cy="360" r="72"/><path class="cls-1" d="M1684.55,516.6a72,72,0,0,0-101.82,0S1529,579.87,1430,579.87c-119.29,0-216-96.71-216-216a72,72,0,1,0-144,0c0,198.82,161.18,360,360,360,160.88,0,254.56-105.44,254.56-105.44A72,72,0,0,0,1684.55,516.6Z" transform="translate(-2.08 -3.87)"/><circle class="cls-1" cx="3001.9" cy="160.22" r="72" transform="translate(763.87 2165.73) rotate(-45)"/><circle class="cls-2" cx="3001.89" cy="160.21" r="72" transform="translate(763.87 2165.72) rotate(-45)"/><circle class="cls-3" cx="3001.87" cy="160.18" r="72" transform="translate(763.88 2165.69) rotate(-45)"/><circle class="cls-4" cx="3001.83" cy="160.14" r="72" transform="translate(763.9 2165.65) rotate(-45)"/><circle class="cls-5" cx="3001.77" cy="160.08" r="72" transform="translate(763.93 2165.6) rotate(-45)"/><circle class="cls-6" cx="3001.7" cy="160" r="72" transform="translate(763.96 2165.52) rotate(-45)"/><circle class="cls-7" cx="3001.61" cy="159.91" r="72" transform="translate(764 2165.43) rotate(-45)"/><circle class="cls-8" cx="3001.51" cy="159.8" r="72" transform="translate(764.05 2165.33) rotate(-45)"/><circle class="cls-9" cx="3001.39" cy="159.68" r="72" transform="translate(764.1 2165.2) rotate(-45)"/><circle class="cls-10" cx="3001.25" cy="159.53" r="72" transform="translate(764.16 2165.07) rotate(-45)"/><circle class="cls-229" cx="3001.1" cy="159.38" r="72" transform="translate(764.23 2164.91) rotate(-45)"/><circle class="cls-12" cx="3000.93" cy="159.21" r="72" transform="translate(764.3 2164.74) rotate(-45)"/><circle class="cls-13" cx="3000.75" cy="159.02" r="72" transform="translate(764.38 2164.56) rotate(-45)"/><circle class="cls-14" cx="3000.55" cy="158.81" r="72" transform="translate(764.46 2164.36) rotate(-45)"/><circle class="cls-15" cx="3000.33" cy="158.6" r="72" transform="translate(764.55 2164.14) rotate(-45)"/><circle class="cls-16" cx="3000.1" cy="158.36" r="72" transform="translate(764.65 2163.91) rotate(-45)"/><circle class="cls-17" cx="2999.86" cy="158.12" r="72" transform="translate(764.75 2163.67) rotate(-45)"/><circle class="cls-18" cx="2999.59" cy="157.86" r="72" transform="translate(764.86 2163.4) rotate(-45)"/><circle class="cls-19" cx="2999.32" cy="157.58" r="72" transform="translate(764.97 2163.13) rotate(-45)"/><circle class="cls-230" cx="2999.02" cy="157.29" r="72" transform="translate(765.09 2162.83) rotate(-45)"/><circle class="cls-21" cx="2998.72" cy="156.99" r="72" transform="translate(765.21 2162.53) rotate(-45)"/><circle class="cls-231" cx="2998.39" cy="156.68" r="72" transform="translate(765.34 2162.21) rotate(-45)"/><circle class="cls-23" cx="2998.05" cy="156.35" r="72" transform="translate(765.48 2161.87) rotate(-45)"/><circle class="cls-24" cx="2997.7" cy="156.01" r="72" transform="translate(765.61 2161.52) rotate(-45)"/><circle class="cls-25" cx="2997.33" cy="155.65" r="72" transform="translate(765.76 2161.15) rotate(-45)"/><circle class="cls-26" cx="2996.94" cy="155.28" r="72" transform="translate(765.9 2160.77) rotate(-45)"/><circle class="cls-232" cx="2996.54" cy="154.9" r="72" transform="translate(766.05 2160.38) rotate(-45)"/><circle class="cls-28" cx="2996.13" cy="154.51" r="72" transform="translate(766.21 2159.97) rotate(-45)"/><circle class="cls-233" cx="2995.69" cy="154.11" r="72" transform="translate(766.37 2159.55) rotate(-45)"/><circle class="cls-30" cx="2995.25" cy="153.69" r="72" transform="translate(766.53 2159.11) rotate(-45)"/><circle class="cls-234" cx="2994.79" cy="153.27" r="72" transform="translate(766.7 2158.66) rotate(-45)"/><circle class="cls-32" cx="2994.31" cy="152.83" r="72" transform="translate(766.87 2158.19) rotate(-45)"/><circle class="cls-235" cx="2993.82" cy="152.38" r="72" transform="translate(767.04 2157.71) rotate(-45)"/><circle class="cls-34" cx="2993.31" cy="151.92" r="72" transform="translate(767.22 2157.22) rotate(-45)"/><circle class="cls-35" cx="2992.79" cy="151.45" r="72" transform="translate(767.4 2156.72) rotate(-45)"/><circle class="cls-236" cx="2992.26" cy="150.97" r="72" transform="translate(767.58 2156.19) rotate(-45)"/><circle class="cls-37" cx="2991.7" cy="150.47" r="72" transform="translate(767.77 2155.66) rotate(-45)"/><circle class="cls-237" cx="2991.14" cy="149.97" r="72" transform="translate(767.96 2155.11) rotate(-45)"/><circle class="cls-39" cx="2990.56" cy="149.46" r="72" transform="translate(768.15 2154.55) rotate(-45)"/><circle class="cls-238" cx="2989.96" cy="148.94" r="72" transform="translate(768.35 2153.98) rotate(-45)"/><circle class="cls-41" cx="2989.35" cy="148.41" r="72" transform="translate(768.54 2153.39) rotate(-45)"/><circle class="cls-239" cx="2988.73" cy="147.87" r="72" transform="translate(768.74 2152.79) rotate(-45)"/><circle class="cls-43" cx="2988.09" cy="147.32" r="72" transform="translate(768.94 2152.18) rotate(-45)"/><circle class="cls-240" cx="2987.43" cy="146.76" r="72" transform="translate(769.14 2151.55) rotate(-45)"/><circle class="cls-241" cx="2986.76" cy="146.19" r="72" transform="translate(769.35 2150.91) rotate(-45)"/><circle class="cls-46" cx="2986.08" cy="145.62" r="72" transform="translate(769.56 2150.26) rotate(-45)"/><circle class="cls-242" cx="2985.38" cy="145.03" r="72" transform="translate(769.76 2149.6) rotate(-45)"/><circle class="cls-48" cx="2984.67" cy="144.44" r="72" transform="translate(769.97 2148.92) rotate(-45)"/><circle class="cls-243" cx="2983.94" cy="143.84" r="72" transform="translate(770.18 2148.23) rotate(-45)"/><circle class="cls-50" cx="2983.2" cy="143.24" r="72" transform="translate(770.4 2147.53) rotate(-45)"/><circle class="cls-244" cx="2982.44" cy="142.62" r="72" transform="translate(770.61 2146.81) rotate(-45)"/><circle class="cls-53" cx="2981.67" cy="142" r="72" transform="translate(770.82 2146.09) rotate(-45)"/><circle class="cls-54" cx="2980.89" cy="141.37" r="72" transform="translate(771.04 2145.35) rotate(-45)"/><circle class="cls-245" cx="2980.09" cy="140.74" r="72" transform="translate(771.25 2144.59) rotate(-45)"/><circle class="cls-56" cx="2979.27" cy="140.09" r="72" transform="translate(771.47 2143.83) rotate(-45)"/><circle class="cls-246" cx="2978.45" cy="139.44" r="72" transform="translate(771.69 2143.06) rotate(-45)"/><circle class="cls-58" cx="2977.61" cy="138.79" r="72" transform="translate(771.9 2142.27) rotate(-45)"/><circle class="cls-247" cx="2976.75" cy="138.13" r="72" transform="translate(772.12 2141.47) rotate(-45)"/><circle class="cls-60" cx="2975.88" cy="137.46" r="72" transform="translate(772.33 2140.66) rotate(-45)"/><circle class="cls-61" cx="2975" cy="136.79" r="72" transform="translate(772.55 2139.84) rotate(-45)"/><circle class="cls-248" cx="2974.1" cy="136.11" r="72" transform="translate(772.77 2139.01) rotate(-45)"/><circle class="cls-63" cx="2973.19" cy="135.43" r="72" transform="translate(772.98 2138.16) rotate(-45)"/><circle class="cls-249" cx="2972.26" cy="134.74" r="72" transform="translate(773.2 2137.31) rotate(-45)"/><circle class="cls-250" cx="2971.32" cy="134.05" r="72" transform="translate(773.41 2136.44) rotate(-45)"/><circle class="cls-251" cx="2970.37" cy="133.36" r="72" transform="translate(773.62 2135.56) rotate(-45)"/><circle class="cls-67" cx="2969.4" cy="132.65" r="72" transform="translate(773.84 2134.67) rotate(-45)"/><circle class="cls-252" cx="2968.42" cy="131.95" r="72" transform="translate(774.05 2133.77) rotate(-45)"/><circle class="cls-69" cx="2967.42" cy="131.24" r="72" transform="translate(774.26 2132.86) rotate(-45)"/><circle class="cls-70" cx="2966.41" cy="130.53" r="72" transform="translate(774.47 2131.94) rotate(-45)"/><circle class="cls-253" cx="2965.39" cy="129.81" r="72" transform="translate(774.67 2131) rotate(-45)"/><circle class="cls-254" cx="2964.35" cy="129.09" r="72" transform="translate(774.88 2130.06) rotate(-45)"/><circle class="cls-255" cx="2963.3" cy="128.37" r="72" transform="translate(775.08 2129.11) rotate(-45)"/><circle class="cls-74" cx="2962.24" cy="127.64" r="72" transform="translate(775.28 2128.14) rotate(-45)"/><circle class="cls-256" cx="2961.16" cy="126.92" r="72" transform="translate(775.48 2127.17) rotate(-45)"/><circle class="cls-76" cx="2960.07" cy="126.19" r="72" transform="translate(775.68 2126.18) rotate(-45)"/><circle class="cls-257" cx="2958.97" cy="125.45" r="72" transform="translate(775.87 2125.19) rotate(-45)"/><circle class="cls-78" cx="2957.85" cy="124.72" r="72" transform="translate(776.07 2124.18) rotate(-45)"/><circle class="cls-258" cx="2956.72" cy="123.98" r="72" transform="translate(776.26 2123.17) rotate(-45)"/><circle class="cls-259" cx="2955.58" cy="123.24" r="72" transform="translate(776.44 2122.14) rotate(-45)"/><circle class="cls-81" cx="2954.42" cy="122.5" r="72" transform="translate(776.63 2121.1) rotate(-45)"/><circle class="cls-260" cx="2953.25" cy="121.76" r="72" transform="translate(776.81 2120.06) rotate(-45)"/><circle class="cls-83" cx="2952.06" cy="121.02" r="72" transform="translate(776.99 2119) rotate(-45)"/><circle class="cls-261" cx="2950.87" cy="120.28" r="72" transform="translate(777.16 2117.94) rotate(-45)"/><circle class="cls-85" cx="2949.66" cy="119.53" r="72" transform="translate(777.33 2116.87) rotate(-45)"/><circle class="cls-262" cx="2948.43" cy="118.79" r="72" transform="translate(777.5 2115.78) rotate(-45)"/><circle class="cls-87" cx="2947.2" cy="118.04" r="72" transform="translate(777.66 2114.69) rotate(-45)"/><circle class="cls-263" cx="2945.95" cy="117.3" r="72" transform="translate(777.83 2113.59) rotate(-45)"/><circle class="cls-264" cx="2944.68" cy="116.56" r="72" transform="translate(777.98 2112.48) rotate(-45)"/><circle class="cls-265" cx="2943.41" cy="115.81" r="72" transform="translate(778.13 2111.36) rotate(-45)"/><circle class="cls-266" cx="2942.12" cy="115.07" r="72" transform="translate(778.28 2110.23) rotate(-45)"/><circle class="cls-267" cx="2940.82" cy="114.33" r="72" transform="translate(778.42 2109.09) rotate(-45)"/><circle class="cls-268" cx="2939.5" cy="113.59" r="72" transform="translate(778.56 2107.94) rotate(-45)"/><circle class="cls-94" cx="2938.17" cy="112.85" r="72" transform="translate(778.7 2106.79) rotate(-45)"/><circle class="cls-269" cx="2936.83" cy="112.11" r="72" transform="translate(778.83 2105.63) rotate(-45)"/><circle class="cls-270" cx="2935.48" cy="111.37" r="72" transform="translate(778.95 2104.45) rotate(-45)"/><circle class="cls-271" cx="2934.12" cy="110.64" r="72" transform="translate(779.07 2103.27) rotate(-45)"/><circle class="cls-272" cx="2932.74" cy="109.9" r="72" transform="translate(779.19 2102.08) rotate(-45)"/><circle class="cls-273" cx="2931.35" cy="109.17" r="72" transform="translate(779.3 2100.88) rotate(-45)"/><circle class="cls-274" cx="2929.94" cy="108.44" r="72" transform="translate(779.4 2099.68) rotate(-45)"/><circle class="cls-275" cx="2928.52" cy="107.72" r="72" transform="translate(779.5 2098.46) rotate(-45)"/><circle class="cls-276" cx="2927.1" cy="107" r="72" transform="translate(779.59 2097.24) rotate(-45)"/><circle class="cls-103" cx="2925.65" cy="106.28" r="72" transform="translate(779.68 2096.01) rotate(-45)"/><circle class="cls-277" cx="2924.2" cy="105.56" r="72" transform="translate(779.76 2094.77) rotate(-45)"/><circle class="cls-278" cx="2922.73" cy="104.85" r="72" transform="translate(779.83 2093.53) rotate(-45)"/><circle class="cls-279" cx="2921.25" cy="104.14" r="72" transform="translate(779.9 2092.27) rotate(-45)"/><circle class="cls-280" cx="2919.76" cy="103.43" r="72" transform="translate(779.96 2091.01) rotate(-45)"/><circle class="cls-281" cx="2918.26" cy="102.73" r="72" transform="translate(780.02 2089.74) rotate(-45)"/><circle class="cls-282" cx="2916.74" cy="102.04" r="72" transform="translate(780.06 2088.47) rotate(-45)"/><circle class="cls-283" cx="2915.21" cy="101.34" r="72" transform="translate(780.11 2087.18) rotate(-45)"/><circle class="cls-284" cx="2913.67" cy="100.66" r="72" transform="translate(780.14 2085.89) rotate(-45)"/><circle class="cls-112" cx="2912.12" cy="99.97" r="72" transform="translate(780.17 2084.6) rotate(-45)"/><circle class="cls-285" cx="2910.56" cy="99.3" r="72" transform="translate(780.19 2083.29) rotate(-45)"/><circle class="cls-286" cx="2908.98" cy="98.62" r="72" transform="translate(780.2 2081.98) rotate(-45)"/><circle class="cls-287" cx="2907.39" cy="97.96" r="72" transform="translate(780.21 2080.66) rotate(-45)"/><circle class="cls-288" cx="2905.79" cy="97.3" r="72" transform="translate(780.21 2079.33) rotate(-45)"/><circle class="cls-289" cx="2904.17" cy="96.64" r="72" transform="translate(780.2 2078) rotate(-45)"/><circle class="cls-290" cx="2902.55" cy="95.99" r="72" transform="translate(780.18 2076.66) rotate(-45)"/><circle class="cls-291" cx="2900.91" cy="95.35" r="72" transform="translate(780.15 2075.32) rotate(-45)"/><circle class="cls-292" cx="2899.26" cy="94.72" r="72" transform="translate(780.12 2073.96) rotate(-45)"/><circle class="cls-293" cx="2897.6" cy="94.09" r="72" transform="translate(780.08 2072.61) rotate(-45)"/><circle class="cls-294" cx="2895.93" cy="93.47" r="72" transform="translate(780.03 2071.24) rotate(-45)"/><circle class="cls-295" cx="2894.24" cy="92.85" r="72" transform="translate(779.97 2069.87) rotate(-45)"/><circle class="cls-296" cx="2892.55" cy="92.25" r="72" transform="translate(779.9 2068.49) rotate(-45)"/><circle class="cls-297" cx="2890.84" cy="91.65" r="72" transform="translate(779.82 2067.11) rotate(-45)"/><circle class="cls-298" cx="2889.12" cy="91.05" r="72" transform="translate(779.74 2065.72) rotate(-45)"/><circle class="cls-299" cx="2887.39" cy="90.47" r="72" transform="translate(779.64 2064.32) rotate(-45)"/><circle class="cls-300" cx="2885.64" cy="89.9" r="72" transform="translate(779.54 2062.92) rotate(-45)"/><circle class="cls-301" cx="2883.89" cy="89.33" r="72" transform="translate(779.43 2061.52) rotate(-45)"/><circle class="cls-302" cx="2882.12" cy="88.77" r="72" transform="translate(779.3 2060.1) rotate(-45)"/><circle class="cls-303" cx="2880.35" cy="88.22" r="72" transform="translate(779.17 2058.69) rotate(-45)"/><circle class="cls-304" cx="2878.56" cy="87.68" r="72" transform="translate(779.03 2057.26) rotate(-45)"/><circle class="cls-305" cx="2876.76" cy="87.15" r="72" transform="translate(778.88 2055.83) rotate(-45)"/><circle class="cls-306" cx="2874.94" cy="86.63" r="72" transform="translate(778.72 2054.4) rotate(-45)"/><circle class="cls-307" cx="2873.12" cy="86.12" r="72" transform="translate(778.54 2052.96) rotate(-45)"/><circle class="cls-308" cx="2871.29" cy="85.61" r="72" transform="translate(778.36 2051.52) rotate(-45)"/><circle class="cls-309" cx="2869.44" cy="85.12" r="72" transform="translate(778.17 2050.07) rotate(-45)"/><circle class="cls-310" cx="2867.58" cy="84.64" r="72" transform="translate(777.97 2048.61) rotate(-45)"/><circle class="cls-311" cx="2865.71" cy="84.17" r="72" transform="translate(777.75 2047.15) rotate(-45)"/><circle class="cls-312" cx="2863.83" cy="83.71" r="72" transform="translate(777.53 2045.69) rotate(-45)"/><circle class="cls-313" cx="2861.94" cy="83.26" r="72" transform="translate(777.29 2044.22) rotate(-45)"/><circle class="cls-314" cx="2860.04" cy="82.82" r="72" transform="translate(777.04 2042.75) rotate(-45)"/><circle class="cls-315" cx="2858.13" cy="82.4" r="72" transform="translate(776.78 2041.27) rotate(-45)"/><circle class="cls-316" cx="2856.2" cy="81.98" r="72" transform="translate(776.51 2039.79) rotate(-45)"/><circle class="cls-317" cx="2854.27" cy="81.58" r="72" transform="translate(776.23 2038.3) rotate(-45)"/><circle class="cls-318" cx="2852.32" cy="81.18" r="72" transform="translate(775.94 2036.81) rotate(-45)"/><circle class="cls-319" cx="2850.36" cy="80.8" r="72" transform="translate(775.64 2035.31) rotate(-45)"/><circle class="cls-320" cx="2848.4" cy="80.44" r="72" transform="translate(775.32 2033.81) rotate(-45)"/><circle class="cls-321" cx="2846.42" cy="80.08" r="72" transform="translate(774.99 2032.31) rotate(-45)"/><circle class="cls-322" cx="2844.43" cy="79.74" r="72" transform="translate(774.65 2030.8) rotate(-45)"/><circle class="cls-323" cx="2842.43" cy="79.41" r="72" transform="translate(774.3 2029.29) rotate(-45)"/><circle class="cls-324" cx="2840.42" cy="79.1" r="72" transform="translate(773.93 2027.78) rotate(-45)"/><circle class="cls-325" cx="2838.39" cy="78.79" r="72" transform="translate(773.55 2026.26) rotate(-45)"/><circle class="cls-326" cx="2836.36" cy="78.51" r="72" transform="translate(773.16 2024.74) rotate(-45)"/><circle class="cls-327" cx="2834.32" cy="78.23" r="72" transform="translate(772.76 2023.21) rotate(-45)"/><circle class="cls-328" cx="2832.26" cy="77.97" r="72" transform="translate(772.34 2021.68) rotate(-45)"/><circle class="cls-329" cx="2830.2" cy="77.72" r="72" transform="translate(771.91 2020.15) rotate(-45)"/><circle class="cls-330" cx="2828.13" cy="77.49" r="72" transform="translate(771.47 2018.62) rotate(-45)"/><circle class="cls-331" cx="2826.04" cy="77.27" r="72" transform="translate(771.01 2017.08) rotate(-45)"/><circle class="cls-332" cx="2823.94" cy="77.07" r="72" transform="translate(770.54 2015.54) rotate(-45)"/><circle class="cls-333" cx="2821.84" cy="76.88" r="72" transform="translate(770.05 2013.99) rotate(-45)"/><circle class="cls-334" cx="2819.72" cy="76.71" r="72" transform="translate(769.56 2012.45) rotate(-45)"/><circle class="cls-335" cx="2817.59" cy="76.55" r="72" transform="translate(769.04 2010.9) rotate(-45)"/><circle class="cls-336" cx="2815.46" cy="76.41" r="72" transform="translate(768.52 2009.34) rotate(-45)"/><circle class="cls-337" cx="2813.31" cy="76.29" r="72" transform="translate(767.98 2007.79) rotate(-45)"/><circle class="cls-338" cx="2811.15" cy="76.18" r="72" transform="translate(767.42 2006.23) rotate(-45)"/><circle class="cls-339" cx="2808.98" cy="76.08" r="72" transform="translate(766.85 2004.67) rotate(-45)"/><circle class="cls-340" cx="2806.8" cy="76.01" r="72" transform="translate(766.27 2003.11) rotate(-45)"/><circle class="cls-341" cx="2804.62" cy="75.95" r="72" transform="translate(765.67 2001.54) rotate(-45)"/><circle class="cls-342" cx="2802.42" cy="75.9" r="72" transform="translate(765.06 1999.97) rotate(-45)"/><circle class="cls-343" cx="2800.21" cy="75.88" r="72" transform="translate(764.43 1998.41) rotate(-45)"/><circle class="cls-344" cx="2797.99" cy="75.87" r="72" transform="translate(763.79 1996.83) rotate(-45)"/><circle class="cls-345" cx="2791.29" cy="75.95" r="72" transform="translate(761.77 1992.12) rotate(-45)"/><circle class="cls-346" cx="2784.68" cy="76.18" r="72" transform="translate(759.66 1987.51) rotate(-45)"/><circle class="cls-347" cx="2778.16" cy="76.57" r="72" transform="translate(757.48 1983.02) rotate(-45)"/><path class="cls-348" d="M2720.83,26.19a72,72,0,1,1,0,101.82A72,72,0,0,1,2720.83,26.19Z" transform="translate(-2.08 -3.87)"/><path class="cls-349" d="M2714.51,26.85a72,72,0,1,1,0,101.82A72,72,0,0,1,2714.51,26.85Z" transform="translate(-2.08 -3.87)"/><path class="cls-350" d="M2708.28,27.65a72,72,0,1,1,0,101.82A72,72,0,0,1,2708.28,27.65Z" transform="translate(-2.08 -3.87)"/><path class="cls-351" d="M2702.16,28.58a72,72,0,1,1,0,101.82A72,72,0,0,1,2702.16,28.58Z" transform="translate(-2.08 -3.87)"/><path class="cls-352" d="M2696.13,29.63a72,72,0,1,1,0,101.82A72,72,0,0,1,2696.13,29.63Z" transform="translate(-2.08 -3.87)"/><path class="cls-353" d="M2690.2,30.79a72,72,0,1,1,0,101.82A72,72,0,0,1,2690.2,30.79Z" transform="translate(-2.08 -3.87)"/><path class="cls-354" d="M2684.38,32.07a72,72,0,1,1,0,101.82A72,72,0,0,1,2684.38,32.07Z" transform="translate(-2.08 -3.87)"/><path class="cls-355" d="M2678.66,33.44a72,72,0,1,1,0,101.82A72,72,0,0,1,2678.66,33.44Z" transform="translate(-2.08 -3.87)"/><path class="cls-356" d="M2673,34.92a72,72,0,1,1,0,101.82A72,72,0,0,1,2673,34.92Z" transform="translate(-2.08 -3.87)"/><path class="cls-357" d="M2667.53,36.48a72,72,0,1,1,0,101.82A72,72,0,0,1,2667.53,36.48Z" transform="translate(-2.08 -3.87)"/><path class="cls-358" d="M2662.12,38.14a72,72,0,1,1,0,101.82A72,72,0,0,1,2662.12,38.14Z" transform="translate(-2.08 -3.87)"/><path class="cls-359" d="M2656.82,39.87a72,72,0,1,1,0,101.82A72,72,0,0,1,2656.82,39.87Z" transform="translate(-2.08 -3.87)"/><path class="cls-360" d="M2651.63,41.68a72,72,0,1,1,0,101.82A72,72,0,0,1,2651.63,41.68Z" transform="translate(-2.08 -3.87)"/><path class="cls-361" d="M2646.54,43.56a72,72,0,1,1,0,101.82A72,72,0,0,1,2646.54,43.56Z" transform="translate(-2.08 -3.87)"/><path class="cls-362" d="M2641.57,45.5a72,72,0,1,1,0,101.82A72,72,0,0,1,2641.57,45.5Z" transform="translate(-2.08 -3.87)"/><path class="cls-363" d="M2636.71,47.5a72,72,0,1,1,0,101.82A72,72,0,0,1,2636.71,47.5Z" transform="translate(-2.08 -3.87)"/><path class="cls-364" d="M2632,49.55a72,72,0,1,1,0,101.82A72,72,0,0,1,2632,49.55Z" transform="translate(-2.08 -3.87)"/><path class="cls-365" d="M2627.31,51.65a72,72,0,1,1,0,101.82A72,72,0,0,1,2627.31,51.65Z" transform="translate(-2.08 -3.87)"/><path class="cls-366" d="M2622.79,53.78a72,72,0,1,1,.05,101.82A72,72,0,0,1,2622.79,53.78Z" transform="translate(-2.08 -3.87)"/><path class="cls-367" d="M2618.38,56a72,72,0,1,1,.05,101.82A72,72,0,0,1,2618.38,56Z" transform="translate(-2.08 -3.87)"/><path class="cls-368" d="M2614.08,58.16a72,72,0,1,1,.06,101.82A72,72,0,0,1,2614.08,58.16Z" transform="translate(-2.08 -3.87)"/><path class="cls-369" d="M2609.9,60.38A72,72,0,1,1,2610,162.2,72,72,0,0,1,2609.9,60.38Z" transform="translate(-2.08 -3.87)"/><path class="cls-199" d="M2605.84,62.62a72,72,0,1,1,.06,101.82A72,72,0,0,1,2605.84,62.62Z" transform="translate(-2.08 -3.87)"/><path class="cls-200" d="M2601.9,64.87A72,72,0,1,1,2602,166.7,72,72,0,0,1,2601.9,64.87Z" transform="translate(-2.08 -3.87)"/><path class="cls-370" d="M2598.07,67.13a72,72,0,1,1,.07,101.82A72,72,0,0,1,2598.07,67.13Z" transform="translate(-2.08 -3.87)"/><path class="cls-371" d="M2594.37,69.39a72,72,0,1,1,.07,101.82A72,72,0,0,1,2594.37,69.39Z" transform="translate(-2.08 -3.87)"/><path class="cls-372" d="M2590.79,71.64a72,72,0,1,1,.07,101.82A72,72,0,0,1,2590.79,71.64Z" transform="translate(-2.08 -3.87)"/><path class="cls-373" d="M2587.33,73.88a72,72,0,1,1,.07,101.82A72,72,0,0,1,2587.33,73.88Z" transform="translate(-2.08 -3.87)"/><path class="cls-374" d="M2584,76.11a72,72,0,1,1,.08,101.82A72,72,0,0,1,2584,76.11Z" transform="translate(-2.08 -3.87)"/><path class="cls-375" d="M2580.78,78.31a72,72,0,1,1,.08,101.82A72,72,0,0,1,2580.78,78.31Z" transform="translate(-2.08 -3.87)"/><path class="cls-376" d="M2577.7,80.48a72,72,0,1,1,.08,101.82A72,72,0,0,1,2577.7,80.48Z" transform="translate(-2.08 -3.87)"/><path class="cls-377" d="M2574.74,82.62a72,72,0,1,1,.08,101.82A72,72,0,0,1,2574.74,82.62Z" transform="translate(-2.08 -3.87)"/><path class="cls-208" d="M2571.91,84.72a72,72,0,1,1,.08,101.82A72,72,0,0,1,2571.91,84.72Z" transform="translate(-2.08 -3.87)"/><path class="cls-378" d="M2569.2,86.77a72,72,0,1,1,.09,101.82A72,72,0,0,1,2569.2,86.77Z" transform="translate(-2.08 -3.87)"/><path class="cls-210" d="M2566.63,88.77a72,72,0,1,1,.09,101.82A72,72,0,0,1,2566.63,88.77Z" transform="translate(-2.08 -3.87)"/><path class="cls-211" d="M2564.19,90.71a72,72,0,1,1,.09,101.82A72,72,0,0,1,2564.19,90.71Z" transform="translate(-2.08 -3.87)"/><path class="cls-379" d="M2561.87,92.58a72,72,0,1,1,.09,101.82A72,72,0,0,1,2561.87,92.58Z" transform="translate(-2.08 -3.87)"/><path class="cls-380" d="M2559.69,94.39a72,72,0,1,1,.1,101.82A72,72,0,0,1,2559.69,94.39Z" transform="translate(-2.08 -3.87)"/><path class="cls-381" d="M2557.65,96.13a72,72,0,1,1,.1,101.82A72,72,0,0,1,2557.65,96.13Z" transform="translate(-2.08 -3.87)"/><path class="cls-382" d="M2555.74,97.78a72,72,0,1,1,.1,101.82A72,72,0,0,1,2555.74,97.78Z" transform="translate(-2.08 -3.87)"/><path class="cls-383" d="M2554,99.35a72,72,0,1,1,.1,101.82A72,72,0,0,1,2554,99.35Z" transform="translate(-2.08 -3.87)"/><path class="cls-217" d="M2552.32,100.82a72,72,0,1,1,.11,101.82A72,72,0,0,1,2552.32,100.82Z" transform="translate(-2.08 -3.87)"/><path class="cls-384" d="M2550.82,102.2a72,72,0,1,1,.11,101.82A72,72,0,0,1,2550.82,102.2Z" transform="translate(-2.08 -3.87)"/><path class="cls-219" d="M2549.45,103.47a72,72,0,1,1,.11,101.82A72,72,0,0,1,2549.45,103.47Z" transform="translate(-2.08 -3.87)"/><path class="cls-220" d="M2548.23,104.63a72,72,0,1,1,.11,101.82A72,72,0,0,1,2548.23,104.63Z" transform="translate(-2.08 -3.87)"/><path class="cls-221" d="M2547.14,105.68a72,72,0,1,1,.12,101.82A72,72,0,0,1,2547.14,105.68Z" transform="translate(-2.08 -3.87)"/><path class="cls-222" d="M2546.2,106.61a72,72,0,1,1,.12,101.82A72,72,0,0,1,2546.2,106.61Z" transform="translate(-2.08 -3.87)"/><path class="cls-385" d="M2545.4,107.41a72,72,0,1,1,.12,101.82A72,72,0,0,1,2545.4,107.41Z" transform="translate(-2.08 -3.87)"/><path class="cls-224" d="M2544.74,108.08a72,72,0,1,1,.12,101.82A72,72,0,0,1,2544.74,108.08Z" transform="translate(-2.08 -3.87)"/><path class="cls-225" d="M2544.23,108.61a72,72,0,1,1,.12,101.82A72,72,0,0,1,2544.23,108.61Z" transform="translate(-2.08 -3.87)"/><path class="cls-226" d="M2543.86,109a72,72,0,1,1,.13,101.82A72,72,0,0,1,2543.86,109Z" transform="translate(-2.08 -3.87)"/><path class="cls-227" d="M2543.64,109.23a72,72,0,1,1,.13,101.82A72,72,0,0,1,2543.64,109.23Z" transform="translate(-2.08 -3.87)"/><path class="cls-228" d="M2645.39,211.13a72,72,0,1,1,0-101.82A71.84,71.84,0,0,1,2645.39,211.13Z" transform="translate(-2.08 -3.87)"/><path class="cls-1" d="M2543.57,109.31a72,72,0,0,1,101.82,101.82A215.44,215.44,0,0,0,2582,363.87c0,119.29,96.71,216,216,216,99,0,152.74-63.26,152.74-63.26a72,72,0,1,1,101.82,101.82S2958.87,723.87,2798,723.87c-198.82,0-360-161.18-360-360A359,359,0,0,1,2543.57,109.31Z" transform="translate(-2.08 -3.87)"/><path class="cls-1" d="M1925,3.87a71.91,71.91,0,0,0-72,72v576a72,72,0,0,0,144,0v-576A71.91,71.91,0,0,0,1925,3.87Z" transform="translate(-2.08 -3.87)"/><path class="cls-1" d="M854,309.87a71.91,71.91,0,0,0-72,72v198a72,72,0,1,0,144,0v-198A71.91,71.91,0,0,0,854,309.87Z" transform="translate(-2.08 -3.87)"/><path class="cls-1" d="M854,75.87a81,81,0,1,0,81,81A81.09,81.09,0,0,0,854,75.87Z" transform="translate(-2.08 -3.87)"/><path class="cls-1" d="M2222,309.87a71.91,71.91,0,0,0-72,72v198a72,72,0,0,0,144,0v-198A71.91,71.91,0,0,0,2222,309.87Z" transform="translate(-2.08 -3.87)"/><path class="cls-1" d="M2222,75.87a81,81,0,1,0,81,81A81.09,81.09,0,0,0,2222,75.87Z" transform="translate(-2.08 -3.87)"/><circle class="cls-1" cx="565.72" cy="160.22" r="72" transform="translate(50.32 443.09) rotate(-45)"/><circle class="cls-2" cx="565.65" cy="160.14" r="72" transform="translate(50.36 443.01) rotate(-45)"/><circle class="cls-3" cx="565.43" cy="159.91" r="72" transform="translate(50.46 442.79) rotate(-45)"/><circle class="cls-4" cx="565.06" cy="159.53" r="72" transform="translate(50.62 442.42) rotate(-45)"/><circle class="cls-5" cx="564.55" cy="159" r="72" transform="translate(50.84 441.9) rotate(-45)"/><circle class="cls-6" cx="563.9" cy="158.34" r="72" transform="translate(51.12 441.25) rotate(-45)"/><circle class="cls-7" cx="563.11" cy="157.55" r="72" transform="translate(51.45 440.46) rotate(-45)"/><circle class="cls-8" cx="562.17" cy="156.63" r="72" transform="translate(51.82 439.52) rotate(-45)"/><circle class="cls-9" cx="561.1" cy="155.59" r="72" transform="translate(52.24 438.46) rotate(-45)"/><circle class="cls-10" cx="559.88" cy="154.44" r="72" transform="translate(52.7 437.26) rotate(-45)"/><circle class="cls-229" cx="558.53" cy="153.18" r="72" transform="translate(53.2 435.94) rotate(-45)"/><circle class="cls-386" cx="557.04" cy="151.81" r="72" transform="translate(53.73 434.48) rotate(-45)"/><circle class="cls-13" cx="555.41" cy="150.35" r="72" transform="translate(54.28 432.9) rotate(-45)"/><circle class="cls-14" cx="553.65" cy="148.79" r="72" transform="translate(54.87 431.2) rotate(-45)"/><circle class="cls-15" cx="551.75" cy="147.15" r="72" transform="translate(55.47 429.38) rotate(-45)"/><circle class="cls-16" cx="549.72" cy="145.43" r="72" transform="translate(56.09 427.44) rotate(-45)"/><circle class="cls-17" cx="547.56" cy="143.64" r="72" transform="translate(56.73 425.39) rotate(-45)"/><circle class="cls-387" cx="545.26" cy="141.77" r="72" transform="translate(57.38 423.22) rotate(-45)"/><circle class="cls-388" cx="542.84" cy="139.85" r="72" transform="translate(58.03 420.94) rotate(-45)"/><circle class="cls-230" cx="540.28" cy="137.86" r="72" transform="translate(58.68 418.55) rotate(-45)"/><circle class="cls-21" cx="537.6" cy="135.82" r="72" transform="translate(59.34 416.06) rotate(-45)"/><circle class="cls-231" cx="534.79" cy="133.74" r="72" transform="translate(59.99 413.46) rotate(-45)"/><circle class="cls-23" cx="531.86" cy="131.62" r="72" transform="translate(60.63 410.76) rotate(-45)"/><circle class="cls-24" cx="528.8" cy="129.46" r="72" transform="translate(61.26 407.97) rotate(-45)"/><circle class="cls-389" cx="525.61" cy="127.27" r="72" transform="translate(61.87 405.07) rotate(-45)"/><circle class="cls-390" cx="522.3" cy="125.06" r="72" transform="translate(62.47 402.08) rotate(-45)"/><circle class="cls-391" cx="518.87" cy="122.83" r="72" transform="translate(63.04 399.01) rotate(-45)"/><circle class="cls-28" cx="515.31" cy="120.59" r="72" transform="translate(63.58 395.84) rotate(-45)"/><circle class="cls-233" cx="511.64" cy="118.34" r="72" transform="translate(64.1 392.58) rotate(-45)"/><circle class="cls-30" cx="507.85" cy="116.09" r="72" transform="translate(64.57 389.24) rotate(-45)"/><circle class="cls-234" cx="503.93" cy="113.85" r="72" transform="translate(65.02 385.82) rotate(-45)"/><circle class="cls-392" cx="499.91" cy="111.62" r="72" transform="translate(65.41 382.31) rotate(-45)"/><circle class="cls-393" cx="495.76" cy="109.4" r="72" transform="translate(65.77 378.73) rotate(-45)"/><circle class="cls-394" cx="491.5" cy="107.21" r="72" transform="translate(66.07 375.08) rotate(-45)"/><circle class="cls-35" cx="487.12" cy="105.04" r="72" transform="translate(66.32 371.35) rotate(-45)"/><circle class="cls-36" cx="482.63" cy="102.91" r="72" transform="translate(66.51 367.55) rotate(-45)"/><circle class="cls-37" cx="478.03" cy="100.81" r="72" transform="translate(66.65 363.68) rotate(-45)"/><circle class="cls-237" cx="473.31" cy="98.76" r="72" transform="translate(66.72 359.74) rotate(-45)"/><circle class="cls-395" cx="468.49" cy="96.76" r="72" transform="translate(66.72 355.75) rotate(-45)"/><circle class="cls-396" cx="463.55" cy="94.82" r="72" transform="translate(66.64 351.69) rotate(-45)"/><circle class="cls-397" cx="458.51" cy="92.94" r="72" transform="translate(66.5 347.57) rotate(-45)"/><circle class="cls-398" cx="453.36" cy="91.13" r="72" transform="translate(66.27 343.4) rotate(-45)"/><circle class="cls-43" cx="448.1" cy="89.38" r="72" transform="translate(65.96 339.17) rotate(-45)"/><circle class="cls-240" cx="442.74" cy="87.72" r="72" transform="translate(65.57 334.89) rotate(-45)"/><circle class="cls-399" cx="437.27" cy="86.14" r="72" transform="translate(65.08 330.56) rotate(-45)"/><circle class="cls-400" cx="431.7" cy="84.66" r="72" transform="translate(64.5 326.19) rotate(-45)"/><circle class="cls-401" cx="426.02" cy="83.27" r="72" transform="translate(63.82 321.77) rotate(-45)"/><circle class="cls-402" cx="420.25" cy="81.98" r="72" transform="translate(63.04 317.3) rotate(-45)"/><circle class="cls-403" cx="414.37" cy="80.79" r="72" transform="translate(62.16 312.8) rotate(-45)"/><circle class="cls-50" cx="408.39" cy="79.72" r="72" transform="translate(61.16 308.26) rotate(-45)"/><circle class="cls-244" cx="402.32" cy="78.77" r="72" transform="translate(60.06 303.69) rotate(-45)"/><circle class="cls-404" cx="396.14" cy="77.95" r="72" transform="translate(58.83 299.08) rotate(-45)"/><circle class="cls-405" cx="389.87" cy="77.25" r="72" transform="translate(57.49 294.44) rotate(-45)"/><circle class="cls-406" cx="383.51" cy="76.69" r="72" transform="translate(56.02 289.78) rotate(-45)"/><circle class="cls-407" cx="377.05" cy="76.27" r="72" transform="translate(54.43 285.08) rotate(-45)"/><circle class="cls-408" cx="370.49" cy="75.99" r="72" transform="translate(52.7 280.37) rotate(-45)"/><circle class="cls-409" cx="363.84" cy="75.87" r="72" transform="translate(50.84 275.63) rotate(-45)"/><circle class="cls-247" cx="359.07" cy="75.89" r="72" transform="translate(49.43 272.26) rotate(-45)"/><circle class="cls-410" cx="355" cy="75.96" r="72" transform="translate(48.19 269.41) rotate(-45)"/><circle class="cls-411" cx="350.94" cy="76.09" r="72" transform="translate(46.9 266.57) rotate(-45)"/><circle class="cls-412" cx="346.89" cy="76.28" r="72" transform="translate(45.58 263.77) rotate(-45)"/><circle class="cls-413" cx="342.85" cy="76.53" r="72" transform="translate(44.22 260.98) rotate(-45)"/><circle class="cls-414" cx="338.82" cy="76.84" r="72" transform="translate(42.82 258.22) rotate(-45)"/><circle class="cls-415" cx="334.8" cy="77.21" r="72" transform="translate(41.39 255.49) rotate(-45)"/><circle class="cls-251" cx="330.8" cy="77.63" r="72" transform="translate(39.92 252.78) rotate(-45)"/><circle class="cls-416" cx="326.8" cy="78.11" r="72" transform="translate(38.41 250.09) rotate(-45)"/><circle class="cls-417" cx="322.82" cy="78.64" r="72" transform="translate(36.86 247.44) rotate(-45)"/><circle class="cls-418" cx="318.85" cy="79.24" r="72" transform="translate(35.28 244.8) rotate(-45)"/><circle class="cls-419" cx="314.9" cy="79.88" r="72" transform="translate(33.67 242.2) rotate(-45)"/><circle class="cls-420" cx="310.96" cy="80.59" r="72" transform="translate(32.02 239.62) rotate(-45)"/><circle class="cls-421" cx="307.03" cy="81.34" r="72" transform="translate(30.33 237.07) rotate(-45)"/><circle class="cls-422" cx="303.13" cy="82.16" r="72" transform="translate(28.61 234.54) rotate(-45)"/><circle class="cls-423" cx="299.23" cy="83.02" r="72" transform="translate(26.86 232.04) rotate(-45)"/><circle class="cls-424" cx="295.35" cy="83.94" r="72" transform="translate(25.07 229.57) rotate(-45)"/><circle class="cls-425" cx="291.49" cy="84.92" r="72" transform="translate(23.25 227.12) rotate(-45)"/><circle class="cls-426" cx="287.65" cy="85.94" r="72" transform="translate(21.4 224.71) rotate(-45)"/><circle class="cls-427" cx="283.83" cy="87.02" r="72" transform="translate(19.52 222.32) rotate(-45)"/><circle class="cls-428" cx="280.02" cy="88.15" r="72" transform="translate(17.6 219.96) rotate(-45)"/><circle class="cls-429" cx="276.23" cy="89.34" r="72" transform="translate(15.66 217.62) rotate(-45)"/><circle class="cls-430" cx="272.46" cy="90.57" r="72" transform="translate(13.68 215.32) rotate(-45)"/><circle class="cls-431" cx="268.71" cy="91.86" r="72" transform="translate(11.67 213.05) rotate(-45)"/><circle class="cls-432" cx="264.98" cy="93.2" r="72" transform="translate(9.63 210.8) rotate(-45)"/><circle class="cls-433" cx="261.27" cy="94.58" r="72" transform="translate(7.57 208.58) rotate(-45)"/><circle class="cls-434" cx="257.59" cy="96.02" r="72" transform="translate(5.47 206.4) rotate(-45)"/><circle class="cls-435" cx="253.92" cy="97.51" r="72" transform="translate(3.34 204.24) rotate(-45)"/><circle class="cls-436" cx="250.28" cy="99.04" r="72" transform="translate(1.19 202.12) rotate(-45)"/><circle class="cls-437" cx="246.66" cy="100.63" r="72" transform="translate(-0.99 200.02) rotate(-45)"/><circle class="cls-438" cx="243.06" cy="102.26" r="72" transform="translate(-3.2 197.95) rotate(-45)"/><circle class="cls-439" cx="239.49" cy="103.94" r="72" transform="translate(-5.43 195.92) rotate(-45)"/><circle class="cls-440" cx="235.94" cy="105.67" r="72" transform="translate(-7.7 193.92) rotate(-45)"/><circle class="cls-441" cx="232.41" cy="107.45" r="72" transform="translate(-9.99 191.95) rotate(-45)"/><circle class="cls-442" cx="228.91" cy="109.27" r="72" transform="translate(-12.3 190) rotate(-45)"/><circle class="cls-443" cx="225.44" cy="111.14" r="72" transform="translate(-14.64 188.1) rotate(-45)"/><circle class="cls-444" cx="221.99" cy="113.06" r="72" transform="translate(-17 186.22) rotate(-45)"/><circle class="cls-445" cx="218.57" cy="115.02" r="72" transform="translate(-19.39 184.38) rotate(-45)"/><circle class="cls-446" cx="215.18" cy="117.03" r="72" transform="translate(-21.81 182.56) rotate(-45)"/><circle class="cls-447" cx="211.81" cy="119.08" r="72" transform="translate(-24.25 180.78) rotate(-45)"/><circle class="cls-448" cx="208.47" cy="121.18" r="72" transform="translate(-26.71 179.04) rotate(-45)"/><circle class="cls-449" cx="205.16" cy="123.32" r="72" transform="translate(-29.19 177.33) rotate(-45)"/><circle class="cls-450" cx="201.88" cy="125.51" r="72" transform="translate(-31.7 175.65) rotate(-45)"/><circle class="cls-451" cx="198.63" cy="127.74" r="72" transform="translate(-34.22 174) rotate(-45)"/><circle class="cls-452" cx="195.41" cy="130.01" r="72" transform="translate(-36.77 172.39) rotate(-45)"/><circle class="cls-453" cx="192.22" cy="132.32" r="72" transform="translate(-39.35 170.81) rotate(-45)"/><circle class="cls-454" cx="189.06" cy="134.68" r="72" transform="translate(-41.94 169.27) rotate(-45)"/><circle class="cls-455" cx="185.93" cy="137.08" r="72" transform="translate(-44.55 167.76) rotate(-45)"/><circle class="cls-456" cx="182.84" cy="139.52" r="72" transform="translate(-47.18 166.29) rotate(-45)"/><circle class="cls-457" cx="179.78" cy="142" r="72" transform="translate(-49.84 164.85) rotate(-45)"/><circle class="cls-458" cx="176.75" cy="144.53" r="72" transform="translate(-52.51 163.44) rotate(-45)"/><circle class="cls-459" cx="173.75" cy="147.09" r="72" transform="translate(-55.2 162.08) rotate(-45)"/><circle class="cls-460" cx="170.79" cy="149.69" r="72" transform="translate(-57.91 160.75) rotate(-45)"/><circle class="cls-461" cx="167.86" cy="152.34" r="72" transform="translate(-60.63 159.45) rotate(-45)"/><circle class="cls-462" cx="164.97" cy="155.02" r="72" transform="translate(-63.38 158.19) rotate(-45)"/><circle class="cls-463" cx="162.11" cy="157.74" r="72" transform="translate(-66.14 156.97) rotate(-45)"/><circle class="cls-464" cx="159.29" cy="160.5" r="72" transform="translate(-68.92 155.78) rotate(-45)"/><circle class="cls-465" cx="156.51" cy="163.3" r="72" transform="translate(-71.71 154.63) rotate(-45)"/><circle class="cls-466" cx="153.76" cy="166.14" r="72" transform="translate(-74.52 153.52) rotate(-45)"/><circle class="cls-467" cx="151.05" cy="169.01" r="72" transform="translate(-77.35 152.45) rotate(-45)"/><circle class="cls-468" cx="148.38" cy="171.93" r="72" transform="translate(-80.19 151.41) rotate(-45)"/><circle class="cls-469" cx="145.75" cy="174.87" r="72" transform="translate(-83.04 150.41) rotate(-45)"/><circle class="cls-470" cx="143.15" cy="177.86" r="72" transform="translate(-85.91 149.45) rotate(-45)"/><circle class="cls-471" cx="140.6" cy="180.88" r="72" transform="translate(-88.8 148.53) rotate(-45)"/><circle class="cls-472" cx="138.08" cy="183.93" r="72" transform="translate(-91.7 147.65) rotate(-45)"/><circle class="cls-473" cx="135.61" cy="187.02" r="72" transform="translate(-94.61 146.8) rotate(-45)"/><circle class="cls-474" cx="133.18" cy="190.15" r="72" transform="translate(-97.53 146) rotate(-45)"/><circle class="cls-475" cx="130.79" cy="193.31" r="72" transform="translate(-100.46 145.23) rotate(-45)"/><circle class="cls-476" cx="128.44" cy="196.51" r="72" transform="translate(-103.41 144.51) rotate(-45)"/><circle class="cls-477" cx="126.13" cy="199.73" r="72" transform="translate(-106.37 143.82) rotate(-45)"/><circle class="cls-478" cx="123.86" cy="202.99" r="72" transform="translate(-109.34 143.17) rotate(-45)"/><circle class="cls-479" cx="121.64" cy="206.29" r="72" transform="translate(-112.32 142.57) rotate(-45)"/><circle class="cls-480" cx="119.47" cy="209.62" r="72" transform="translate(-115.31 142) rotate(-45)"/><circle class="cls-481" cx="117.33" cy="212.97" r="72" transform="translate(-118.31 141.48) rotate(-45)"/><circle class="cls-482" cx="115.25" cy="216.37" r="72" transform="translate(-121.32 141) rotate(-45)"/><circle class="cls-483" cx="113.2" cy="219.79" r="72" transform="translate(-124.34 140.56) rotate(-45)"/><circle class="cls-484" cx="111.21" cy="223.24" r="72" transform="translate(-127.36 140.16) rotate(-45)"/><circle class="cls-485" cx="109.26" cy="226.72" r="72" transform="translate(-130.4 139.8) rotate(-45)"/><circle class="cls-486" cx="107.35" cy="230.24" r="72" transform="translate(-133.44 139.48) rotate(-45)"/><circle class="cls-487" cx="105.5" cy="233.78" r="72" transform="translate(-136.49 139.21) rotate(-45)"/><circle class="cls-488" cx="103.69" cy="237.36" r="72" transform="translate(-139.54 138.97) rotate(-45)"/><circle class="cls-489" cx="101.93" cy="240.96" r="72" transform="translate(-142.61 138.79) rotate(-45)"/><circle class="cls-490" cx="100.22" cy="244.59" r="72" transform="translate(-145.68 138.64) rotate(-45)"/><circle class="cls-491" cx="98.56" cy="248.25" r="72" transform="translate(-148.75 138.54) rotate(-45)"/><circle class="cls-492" cx="96.95" cy="251.94" r="72" transform="translate(-151.83 138.48) rotate(-45)"/><circle class="cls-493" cx="95.39" cy="255.65" r="72" transform="translate(-154.91 138.46) rotate(-45)"/><circle class="cls-494" cx="93.88" cy="259.39" r="72" transform="translate(-158 138.49) rotate(-45)"/><circle class="cls-495" cx="92.42" cy="263.16" r="72" transform="translate(-161.1 138.56) rotate(-45)"/><circle class="cls-496" cx="91.01" cy="266.96" r="72" transform="translate(-164.19 138.68) rotate(-45)"/><circle class="cls-497" cx="89.66" cy="270.78" r="72" transform="translate(-167.29 138.84) rotate(-45)"/><circle class="cls-498" cx="88.36" cy="274.63" r="72" transform="translate(-170.39 139.05) rotate(-45)"/><circle class="cls-499" cx="87.11" cy="278.5" r="72" transform="translate(-173.5 139.3) rotate(-45)"/><circle class="cls-500" cx="85.91" cy="282.4" r="72" transform="translate(-176.6 139.6) rotate(-45)"/><circle class="cls-501" cx="84.77" cy="286.32" r="72" transform="translate(-179.71 139.94) rotate(-45)"/><circle class="cls-502" cx="83.69" cy="290.27" r="72" transform="translate(-182.82 140.33) rotate(-45)"/><circle class="cls-503" cx="82.66" cy="294.24" r="72" transform="translate(-185.93 140.76) rotate(-45)"/><circle class="cls-504" cx="81.68" cy="298.23" r="72" transform="translate(-189.04 141.24) rotate(-45)"/><circle class="cls-505" cx="80.76" cy="302.25" r="72" transform="translate(-192.15 141.77) rotate(-45)"/><circle class="cls-506" cx="79.9" cy="306.29" r="72" transform="translate(-195.26 142.34) rotate(-45)"/><circle class="cls-507" cx="79.1" cy="310.35" r="72" transform="translate(-198.36 142.96) rotate(-45)"/><circle class="cls-508" cx="78.35" cy="314.43" r="72" transform="translate(-201.47 143.63) rotate(-45)"/><circle class="cls-509" cx="77.66" cy="318.54" r="72" transform="translate(-204.57 144.35) rotate(-45)"/><circle class="cls-510" cx="77.03" cy="322.67" r="72" transform="translate(-207.68 145.11) rotate(-45)"/><circle class="cls-511" cx="76.46" cy="326.81" r="72" transform="translate(-210.78 145.92) rotate(-45)"/><circle class="cls-512" cx="75.95" cy="330.98" r="72" transform="translate(-213.87 146.78) rotate(-45)"/><circle class="cls-513" cx="75.5" cy="335.17" r="72" transform="translate(-216.97 147.69) rotate(-45)"/><circle class="cls-514" cx="75.11" cy="339.38" r="72" transform="translate(-220.05 148.65) rotate(-45)"/><circle class="cls-515" cx="74.78" cy="343.6" r="72" transform="translate(-223.14 149.65) rotate(-45)"/><circle class="cls-516" cx="74.52" cy="347.85" r="72" transform="translate(-226.22 150.71) rotate(-45)"/><circle class="cls-517" cx="74.31" cy="352.11" r="72" transform="translate(-229.29 151.81) rotate(-45)"/><circle class="cls-518" cx="74.17" cy="356.39" r="72" transform="translate(-232.36 152.97) rotate(-45)"/><circle class="cls-519" cx="74.09" cy="360.69" r="72" transform="translate(-235.43 154.17) rotate(-45)"/><circle class="cls-172" cx="74.08" cy="365.64" r="72" transform="translate(-238.93 155.61) rotate(-45)"/><circle class="cls-173" cx="74.2" cy="372.29" r="72" transform="translate(-243.59 157.64) rotate(-45)"/><circle class="cls-520" cx="74.47" cy="378.84" r="72" transform="translate(-248.15 159.75) rotate(-45)"/><circle class="cls-521" cx="74.89" cy="385.3" r="72" transform="translate(-252.59 161.94) rotate(-45)"/><circle class="cls-522" cx="75.45" cy="391.67" r="72" transform="translate(-256.93 164.2) rotate(-45)"/><circle class="cls-523" cx="76.15" cy="397.94" r="72" transform="translate(-261.16 166.53) rotate(-45)"/><circle class="cls-524" cx="76.98" cy="404.11" r="72" transform="translate(-265.28 168.93) rotate(-45)"/><circle class="cls-525" cx="77.93" cy="410.19" r="72" transform="translate(-269.3 171.38) rotate(-45)"/><circle class="cls-180" cx="79" cy="416.17" r="72" transform="translate(-273.21 173.89) rotate(-45)"/><circle class="cls-181" cx="80.18" cy="422.04" r="72" transform="translate(-277.02 176.44) rotate(-45)"/><circle class="cls-526" cx="81.47" cy="427.82" r="72" transform="translate(-280.73 179.05) rotate(-45)"/><circle class="cls-527" cx="82.86" cy="433.49" r="72" transform="translate(-284.34 181.69) rotate(-45)"/><circle class="cls-528" cx="84.35" cy="439.07" r="72" transform="translate(-287.84 184.38) rotate(-45)"/><circle class="cls-529" cx="85.93" cy="444.53" r="72" transform="translate(-291.25 187.09) rotate(-45)"/><circle class="cls-530" cx="87.59" cy="449.9" r="72" transform="translate(-294.55 189.84) rotate(-45)"/><circle class="cls-187" cx="89.33" cy="455.16" r="72" transform="translate(-297.76 192.61) rotate(-45)"/><circle class="cls-188" cx="91.14" cy="460.31" r="72" transform="translate(-300.87 195.4) rotate(-45)"/><circle class="cls-189" cx="93.03" cy="465.35" r="72" transform="translate(-303.88 198.21) rotate(-45)"/><circle class="cls-190" cx="94.97" cy="470.28" r="72" transform="translate(-306.8 201.03) rotate(-45)"/><circle class="cls-531" cx="96.97" cy="475.11" r="72" transform="translate(-309.63 203.86) rotate(-45)"/><circle class="cls-532" cx="99.02" cy="479.82" r="72" transform="translate(-312.36 206.69) rotate(-45)"/><circle class="cls-533" cx="101.11" cy="484.43" r="72" transform="translate(-315.01 209.52) rotate(-45)"/><circle class="cls-534" cx="103.25" cy="488.92" r="72" transform="translate(-317.56 212.34) rotate(-45)"/><circle class="cls-195" cx="105.41" cy="493.29" r="72" transform="translate(-320.02 215.15) rotate(-45)"/><circle class="cls-196" cx="107.61" cy="497.55" r="72" transform="translate(-322.39 217.95) rotate(-45)"/><circle class="cls-197" cx="109.82" cy="501.7" r="72" transform="translate(-324.67 220.74) rotate(-45)"/><circle class="cls-198" cx="112.06" cy="505.73" r="72" transform="translate(-326.86 223.49) rotate(-45)"/><circle class="cls-535" cx="114.3" cy="509.64" r="72" transform="translate(-328.97 226.23) rotate(-45)"/><circle class="cls-536" cx="116.55" cy="513.44" r="72" transform="translate(-331 228.93) rotate(-45)"/><circle class="cls-537" cx="118.79" cy="517.11" r="72" transform="translate(-332.94 231.59) rotate(-45)"/><circle class="cls-202" cx="121.04" cy="520.66" r="72" transform="translate(-334.79 234.22) rotate(-45)"/><circle class="cls-203" cx="123.26" cy="524.1" r="72" transform="translate(-336.57 236.8) rotate(-45)"/><circle class="cls-204" cx="125.48" cy="527.4" r="72" transform="translate(-338.26 239.33) rotate(-45)"/><circle class="cls-205" cx="127.66" cy="530.59" r="72" transform="translate(-339.87 241.81) rotate(-45)"/><circle class="cls-206" cx="129.82" cy="533.65" r="72" transform="translate(-341.4 244.23) rotate(-45)"/><circle class="cls-207" cx="131.95" cy="536.59" r="72" transform="translate(-342.86 246.6) rotate(-45)"/><circle class="cls-538" cx="134.03" cy="539.4" r="72" transform="translate(-344.23 248.89) rotate(-45)"/><circle class="cls-539" cx="136.07" cy="542.08" r="72" transform="translate(-345.53 251.12) rotate(-45)"/><circle class="cls-210" cx="138.05" cy="544.63" r="72" transform="translate(-346.76 253.27) rotate(-45)"/><circle class="cls-211" cx="139.98" cy="547.06" r="72" transform="translate(-347.91 255.34) rotate(-45)"/><circle class="cls-212" cx="141.84" cy="549.35" r="72" transform="translate(-348.98 257.33) rotate(-45)"/><circle class="cls-213" cx="143.64" cy="551.51" r="72" transform="translate(-349.99 259.24) rotate(-45)"/><circle class="cls-214" cx="145.36" cy="553.54" r="72" transform="translate(-350.92 261.05) rotate(-45)"/><circle class="cls-215" cx="147" cy="555.44" r="72" transform="translate(-351.78 262.76) rotate(-45)"/><circle class="cls-540" cx="148.55" cy="557.2" r="72" transform="translate(-352.57 264.38) rotate(-45)"/><circle class="cls-217" cx="150.01" cy="558.83" r="72" transform="translate(-353.29 265.89) rotate(-45)"/><circle class="cls-218" cx="151.38" cy="560.32" r="72" transform="translate(-353.95 267.29) rotate(-45)"/><circle class="cls-219" cx="152.64" cy="561.68" r="72" transform="translate(-354.54 268.58) rotate(-45)"/><circle class="cls-220" cx="153.8" cy="562.89" r="72" transform="translate(-355.06 269.75) rotate(-45)"/><circle class="cls-221" cx="154.83" cy="563.97" r="72" transform="translate(-355.51 270.8) rotate(-45)"/><circle class="cls-222" cx="155.75" cy="564.9" r="72" transform="translate(-355.91 271.72) rotate(-45)"/><circle class="cls-223" cx="156.55" cy="565.7" r="72" transform="translate(-356.24 272.52) rotate(-45)"/><circle class="cls-541" cx="157.21" cy="566.35" r="72" transform="translate(-356.5 273.18) rotate(-45)"/><circle class="cls-225" cx="157.73" cy="566.86" r="72" transform="translate(-356.71 273.7) rotate(-45)"/><circle class="cls-226" cx="158.11" cy="567.22" r="72" transform="translate(-356.86 274.07) rotate(-45)"/><circle class="cls-227" cx="158.35" cy="567.44" r="72" transform="translate(-356.94 274.3) rotate(-45)"/><circle class="cls-228" cx="158.43" cy="567.52" r="72" transform="translate(-356.97 274.38) rotate(-45)"/><path class="cls-1" d="M616.63,516.6a72,72,0,0,0-101.82,0s-53.73,63.26-152.73,63.26c-97.09,0-152.73-63.26-152.73-63.26A72,72,0,0,0,107.52,618.43s93.68,105.44,254.56,105.44S616.63,618.43,616.63,618.43A72,72,0,0,0,616.63,516.6Z" transform="translate(-2.08 -3.87)"/></svg>