<svg viewBox="0 0 560 130" fill="none" xmlns="http://www.w3.org/2000/svg"><path d="M350.528 0C343.273 0 337.403 5.80985 337.403 12.991V116.919C337.403 124.1 343.273 129.91 350.528 129.91C357.784 129.91 363.653 124.1 363.653 116.919V12.991C363.653 5.80985 357.802 0 350.528 0Z" fill="#00D6C3"/><path d="M168.419 68.2026V103.928C168.419 111.109 162.549 116.919 155.294 116.919C148.039 116.919 142.169 111.109 142.169 103.928V68.2026C142.169 61.0215 148.039 55.2116 155.294 55.2116C162.567 55.2116 168.419 61.0215 168.419 68.2026ZM155.294 12.991C147.146 12.991 140.528 19.5406 140.528 27.6058C140.528 35.6711 147.146 42.2207 155.294 42.2207C163.442 42.2207 170.06 35.6711 170.06 27.6058C170.06 19.5406 163.442 12.991 155.294 12.991Z" fill="#00D6C3"/><path d="M417.794 68.2026V103.928C417.794 111.109 411.924 116.919 404.669 116.919C397.414 116.919 391.544 111.109 391.544 103.928V68.2026C391.544 61.0215 397.414 55.2116 404.669 55.2116C411.942 55.2116 417.794 61.0215 417.794 68.2026ZM404.669 12.991C396.521 12.991 389.903 19.5406 389.903 27.6058C389.903 35.6711 396.521 42.2207 404.669 42.2207C412.817 42.2207 419.435 35.6711 419.435 27.6058C419.435 19.5406 412.817 12.991 404.669 12.991Z" fill="#00D6C3"/><path d="M15.3307 101.709C15.3307 98.2262 16.6979 94.9604 19.1953 92.4885C21.6745 90.0347 24.9922 88.6634 28.5104 88.6634C31.7188 88.6634 34.763 89.8001 37.151 91.8751C30.4063 84.8744 26.25 75.4018 26.25 64.9549C26.25 43.4296 43.8776 25.982 65.625 25.982C83.6719 25.982 93.4609 37.4032 93.4609 37.4032C98.5833 42.4733 106.896 42.4733 112.018 37.4032C117.141 32.3331 117.141 24.1055 112.018 19.0354C112.036 19.0173 94.9557 0 65.625 0C29.3854 0 0 29.0854 0 64.9549C0 82.4566 6.98177 98.3345 18.3568 110.008C16.4062 107.681 15.3307 104.776 15.3307 101.709Z" fill="#72F951"/><path d="M112.055 92.4885C109.576 90.0347 106.258 88.6634 102.74 88.6634C99.2213 88.6634 95.9219 90.0166 93.4245 92.4885C93.4062 92.5246 90.9271 95.3754 86.2786 98.1901C83.5443 99.8501 80.6276 101.167 77.5651 102.105C73.7552 103.278 69.7266 103.892 65.625 103.892C61.5963 103.892 57.6224 103.296 53.8125 102.105C50.7682 101.167 47.8333 99.8501 45.0807 98.1901C40.3958 95.3754 37.8255 92.5246 37.8073 92.4885C35.3099 90.0166 32.0104 88.6634 28.4922 88.6634C24.974 88.6634 21.6745 90.0166 19.1771 92.4885C16.6979 94.9424 15.3125 98.2262 15.3125 101.709C15.3125 105.191 16.6797 108.457 19.1771 110.929C19.2135 110.983 23.5339 115.746 31.3906 120.455C36.0026 123.216 40.9062 125.417 45.974 127.005C52.3177 128.972 58.9167 129.982 65.6068 129.982C72.2969 129.982 78.9141 128.99 85.2396 127.005C90.3073 125.417 95.2109 123.216 99.8229 120.455C107.68 115.746 112 110.983 112.036 110.929C114.516 108.475 115.901 105.191 115.901 101.709C115.919 98.2262 114.552 94.9424 112.055 92.4885Z" fill="#00D6C3"/><path d="M207.795 51.9098C214.758 51.9098 220.464 57.2866 220.938 64.0527C221.412 42.9424 238.857 25.9639 260.295 25.9639C278.342 25.9639 288.131 37.3852 288.131 37.3852C293.253 42.4552 301.566 42.4552 306.688 37.3852C311.81 32.3151 311.81 24.0874 306.688 19.0173C306.688 19.0173 289.607 0 260.277 0C224.438 0 195.308 28.4358 194.67 63.7641C195.29 57.1242 200.941 51.9098 207.795 51.9098Z" fill="#72F951"/><path d="M306.743 92.4886C304.263 90.0347 300.946 88.6635 297.427 88.6635C293.909 88.6635 290.61 90.0167 288.112 92.4886C288.094 92.5247 285.615 95.3755 280.966 98.1902C278.232 99.8501 275.315 101.167 272.253 102.106C268.443 103.278 264.414 103.892 260.313 103.892C255.008 103.892 249.849 102.863 245 100.824C240.315 98.8578 236.104 96.0611 232.495 92.4886C228.886 88.9161 226.042 84.7481 224.073 80.1111C222.013 75.3116 220.974 70.2054 220.974 64.9549C220.974 57.7738 215.068 51.9279 207.813 51.9279C200.558 51.9279 194.651 57.7738 194.651 64.9549C194.651 73.7238 196.383 82.2401 199.81 90.2512C203.11 97.9917 207.849 104.938 213.883 110.911C219.917 116.883 226.935 121.574 234.756 124.84C242.849 128.232 251.453 129.946 260.313 129.946C267.003 129.946 273.62 128.954 279.946 126.969C285.013 125.381 289.917 123.18 294.529 120.419C302.386 115.71 306.706 110.947 306.743 110.892C309.222 108.439 310.607 105.155 310.607 101.672C310.589 98.2082 309.222 94.9424 306.743 92.4886Z" fill="#00D6C3"/><path d="M472.573 15.1383C476.11 15.1383 479.427 16.4915 481.925 18.9634C484.422 21.4353 485.789 24.7192 485.789 28.2195C485.789 31.2327 484.769 34.1015 482.873 36.411C489.909 29.9516 499.315 25.9822 509.67 25.9822C527.716 25.9822 537.506 37.4034 537.506 37.4034C542.628 42.4735 550.94 42.4735 556.063 37.4034C561.185 32.3333 561.185 24.1057 556.063 19.0356C556.063 19.0356 538.982 0.0182495 509.651 0.0182495C492.097 0.0182495 476.146 6.83851 464.37 17.953C466.722 16.1126 469.565 15.1383 472.573 15.1383Z" fill="#72F951"/><path d="M556.136 92.4525C553.638 89.9806 550.321 88.6274 546.784 88.6274C543.248 88.6274 539.93 89.9806 537.433 92.4525C537.396 92.4886 534.935 95.3394 530.287 98.1541C527.571 99.814 524.636 101.131 521.591 102.069C517.782 103.242 513.771 103.856 509.651 103.856C504.347 103.856 499.206 102.827 494.357 100.806C489.672 98.8397 485.479 96.0431 481.87 92.4705C478.261 88.898 475.435 84.7481 473.448 80.1111C471.407 75.3116 470.368 70.2235 470.368 64.973C470.368 59.7224 471.407 54.6343 473.466 49.8349C475.453 45.2159 478.279 41.0479 481.888 37.4754C484.386 35.0035 485.753 31.7197 485.753 28.2193C485.753 24.719 484.386 21.4351 481.888 18.9632C479.391 16.4913 476.073 15.1381 472.537 15.1381C469 15.1381 465.683 16.4913 463.185 18.9632C457.151 24.9355 452.412 31.9001 449.094 39.6406C445.667 47.6697 443.917 56.186 443.917 64.9549C443.917 73.7419 445.649 82.2582 449.076 90.2693C452.394 98.0097 457.133 104.974 463.167 110.947C469.201 116.919 476.237 121.61 484.058 124.894C492.151 128.286 500.774 130 509.633 130C516.323 130 522.94 128.99 529.284 127.023C534.352 125.435 539.274 123.234 543.886 120.473C551.743 115.764 556.063 110.983 556.118 110.947C561.295 105.84 561.295 97.5406 556.136 92.4525Z" fill="#00D6C3"/></svg>